<?xml version="1.0" encoding="utf-8"?>
<!-- Generator: Adobe Illustrator 23.0.3, SVG Export Plug-In . SVG Version: 6.00 Build 0)  -->
<svg version="1.1" id="Layer_1" xmlns="http://www.w3.org/2000/svg" xmlns:xlink="http://www.w3.org/1999/xlink" x="0px" y="0px"
	 viewBox="0 0 702.5 425" style="enable-background:new 0 0 702.5 425;" xml:space="preserve">
<style type="text/css">
	.st0{fill:#5D8C50;}
	.st1{enable-background:new    ;}
	.st2{fill:#E59A67;}
	.st3{fill:#FFFFFF;}
	.st4{display:none;}
	.st5{display:inline;fill:#D1302E;}
	.st6{display:inline;fill:#2E6531;}
	.st7{display:inline;fill:#80B483;}
	.st8{display:inline;fill:#327C36;}
	.st9{display:inline;fill:#9C2E28;}
	.st10{display:inline;fill:#F4F4F4;}
	.st11{fill:#473A30;}
	.st12{fill:#F9F8F7;}
	.st13{fill:#A04E17;}
	.st14{fill:#217248;}
	.st15{fill:#1D5935;}
</style>
<g id="mot">
	<g>
		<path class="st0" d="M697.8,149.8c-7.4-36.6-26.9-72.2-58.4-93.2c-17.5-11.6-38-15.5-58.4-18.1c-2.7-0.3-5.4-0.7-8.1-1
			c-11.5-4.8-23.6-8.5-35.7-11.4c-40.5-9.9-81.8-13.6-123.1-13c-12.8-3.4-25.7-5.8-38.2-7.8c-32.3-5-64.7-6.9-97.3-3.7
			C213.7,8,150.1,29.2,97.9,68.9C42.2,111.4-7.1,176.1,0.8,250.2C8.6,323.4,57.4,351.8,123.1,383c34.1,16.2,113.1,30.6,151.2,36
			c105.6,9.6,159.2,8.1,232.8-7.2c37.8-7.9,54.1-6.1,91.2-16.8c37.5-10.8,46.3-2.3,67-36.5c17.6-29,25.3-63.8,31-96.8
			C702.7,224.4,705.4,187.1,697.8,149.8z M566.1,114.8c0.3,0.4,0.9,1.1,1.8,2.1c0.9,1,1.9,2,2.9,3c-2.7-2.5-5.5-5-8.4-7.4
			c0.5,0.3,1,0.6,1.6,1C564.9,114.1,565.6,114.5,566.1,114.8z"/>
	</g>
	<g class="st1">
		<path class="st2" d="M157.2,150.5c0.8,5.4-0.1,10.3-2.9,14.6c-2.7,4.3-6.7,6.8-12,7.5c-1.6,0.1-2.8-0.5-3.6-1.7
			c-0.8-1.3-1-2.6-0.4-4.1c0.5-1.5,1.5-2.5,2.9-3.1c2.3-0.7,3.9-2.2,4.9-4.5s1.1-4.6,0.3-7s-2.2-4.1-4.2-5.3c-2.5-1.5-5.3-2-8.2-1.5
			s-5.5,1.4-7.7,2.7s-4.3,2.8-6.4,4.7c-5.4,5-10.1,11.2-14.2,18.7c-1.2,2.3-2.1,4.4-2.9,6.4c0.2-0.6,0.2-0.6,0-0.2
			c0,0.1-0.1,0.3-0.2,0.7c-0.2,0.3-0.3,0.6-0.3,0.7c-0.3,0.9-0.7,1.8-1,2.8c-1.4,4.1-2.5,8.4-3.5,12.6c-0.2,1.4-0.5,2.7-0.7,4
			c0,0.1-0.1,0.5-0.2,1c-0.3,2.1-0.6,4.2-0.7,6.4c-0.2,4.4-0.2,8.6,0.2,12.6c0.1,1.4,0.2,2.1,0.3,2.1c-0.1,0-0.2-0.3-0.2-0.9
			c0.1,1.3,0.2,2.2,0.3,2.8c0.5,2,0.9,3.9,1.4,5.9c0.3,1,0.7,2,1,2.9c0,0.1,0.1,0.3,0.2,0.7l0.3,1l-0.2-0.5c0.8,2.1,2,4.3,3.5,6.6
			c0.2,0.5,0.9,1.6,2.1,3.3l0.5,0.7v0.2c0.1,0,0.3,0.1,0.5,0.3l0.3,0.5c1.5,1.7,3.1,3.3,4.7,4.8c0.8,0.7,1.4,1.2,1.7,1.4
			c0.9,0.7,2,1.4,3.3,2.2c1.1,0.7,2.1,1.3,2.9,1.7c1,0.6,1.7,0.9,2.1,1c1.7,0.8,4,1.5,6.9,2.1c0.1,0.1,0.5,0.2,1.2,0.3l1,0.2
			c0.1,0,0.4,0,0.9,0c0.7,0.1,1.1,0.2,1.2,0.2c0.7,0,2-0.1,4-0.2v0.2l0,0c0.3-0.1,0.8-0.2,1.4-0.3c1.5-0.3,3.3-0.8,5.4-1.4
			c0.2-0.1,0.5-0.2,0.7-0.3c0.5-0.2,0.9-0.5,1.4-0.7c0.9-0.5,1.7-0.9,2.4-1.2c2-1,3.7-2.1,5.2-3.3c2.6-2.1,5.4-4.8,8.3-8.1
			c3-3.5,7.8-10.4,14.3-20.7c1.5-2.4,3.5-3.1,6.1-2s3.5,3,2.9,5.6c-1.7,6-3.9,11.7-6.6,17.2c-2.7,5.5-5.9,10.7-9.7,15.8
			c-3.8,5.1-8.3,9.3-13.6,12.8c-5.2,3.5-10.9,5.6-16.8,6.6c-13.6,2.1-26.1-1-37.4-9.2s-19.1-19.2-23.2-32.7
			c-3.1-11.1-4-22.1-2.8-33.2c1.3-11.1,4.4-21.8,9.3-32.1c5.3-10.9,11.6-19.5,19-25.6c10.9-9.1,21.3-13.4,30.9-13
			c5.8,0.3,10.9,2.2,15.5,5.4C153.6,140.7,156.3,145.1,157.2,150.5z"/>
		<path class="st2" d="M220.8,210.4c1.5-1.5,3.3-1.7,5.4-0.5c2.1,1.2,2.8,2.8,2,5c-4,11.2-10.1,18.7-18.1,22.6
			c-3.9,2.3-8.4,3.4-13.4,3.4c-5-0.1-9.3-1.6-12.9-4.6c-2.4-2.1-4.4-4.6-6-7.6s-2.7-6.3-3.4-10c-0.6-3.7-1-7-1.2-9.9
			s-0.3-6.3-0.3-10.1c0.1-9.2,1.6-20.4,4.3-33.7c2.2-10.8,4.8-20,7.8-27.6c1.2-2.6,2.6-4.9,4.3-6.8c1.7-1.9,3.8-3.2,6.2-3.9
			s5-0.2,7.6,1.6c2.4,1.4,4.2,3.6,5.3,6.7c1.1,3.1,1.6,6.2,1.5,9.2c-0.1,3.1-0.3,6-0.5,8.7c-1.5,16.8-8.1,33.8-19.9,50.8
			c0.1,2.1,0.2,4.3,0.3,6.6l0.2,0.7c0,0.1,0,0.2,0,0.3c0.1,0.6,0.2,1,0.2,1.2c0.2,1.2,0.5,2.2,0.7,3.1c0.2,1.2,0.6,2.4,1,3.8
			c0.1,0.1,0.2,0.3,0.2,0.5h0.2c0.2,0.7,0.5,1.3,0.7,1.7c0.1,0.1,0.3,0.3,0.4,0.6c0.2,0.3,0.4,0.7,0.8,1.1c0.3,0.3,0.5,0.6,0.5,0.7
			c0.1,0.1,0.2,0.2,0.3,0.2c0.5,0.3,0.9,0.7,1.4,1c0.1,0,0.2,0.1,0.3,0.2h0.2c0.9,0.3,1.8,0.5,2.6,0.5c2.1,0,4.4-0.7,6.9-2.1
			c1.7-1,3.3-2.3,4.8-3.7s3.2-3.2,5.2-5.3C218.5,212.9,219.9,211.4,220.8,210.4z M195.1,152.5c-3.1,14.3-5,27-5.5,38.2
			c6.8-12.8,10.8-24.9,12.1-36.5c0.3-4.3,0.3-8.4,0-12.4c-0.1-0.7-0.3-1.6-0.6-2.9c-0.3-1.2-0.4-1.9-0.4-2.2l-0.5-1l-0.5,0.3
			c-0.9,1.3-1.6,2.8-2.2,4.6c-0.5,1.8-1,4-1.5,6.7C195.5,150.2,195.2,151.9,195.1,152.5z"/>
		<path class="st2" d="M272.7,204.9c1.2-1.5,2.6-1.7,4.5-0.6c1.8,1.1,2.4,2.5,1.7,4.2c-2.5,6.1-6.4,11.3-11.6,15.6
			s-10.9,7.1-17.3,8.2c-6.6,1-11.9,0.9-15.9-0.5c-6.2-2.4-10.9-6.6-14-12.4c-2.1-4.1-3.3-8.6-3.7-13.5c-0.4-4.8,0.2-9.6,1.9-14.3
			s4.4-8.4,8.2-11.1c5.8-4,11.5-5.3,17.3-3.8c6,1.6,8.9,6,8.8,13.3c0,5.8-1.6,10.7-4.9,14.9c-3.3,4.2-7.6,6.8-13,7.9
			c1.5,2.7,3.6,4.3,6.3,4.9c2.7,0.6,6,0.8,9.8,0.4c4.3-0.5,7.5-1.5,9.8-3.1C266.6,210.8,270.6,207.4,272.7,204.9z M240.5,188
			c-3.3,1.3-5.7,3.7-7.1,7.3s-1.7,7.4-1,11.3c5-1.6,8.5-4.5,10.7-8.6c1.5-2.6,2.1-5.3,1.7-7.9c-0.1-1.5-0.5-2.4-1.2-2.7
			C243,187.1,241.9,187.3,240.5,188z"/>
		<path class="st2" d="M344,236.5c1.4-1.2,3-1.3,4.8-0.4c1.8,0.9,2.3,2.2,1.6,4.1c-1,2.9-2.7,5.2-4.9,6.8c-2.2,1.7-4.8,2.3-7.7,1.8
			c-5.2-0.9-9.5-3.3-13-7.3c-6.5-7.1-9-16.7-7.8-28.7c0.2-1.2,0.6-3.3,1-6.4c0.5-3.1,0.8-5.6,1-7.3c0.2-1.8,0.2-3.9,0-6.5
			c-0.2-2.5-0.7-4.7-1.5-6.6c-0.5-0.9-1-1.5-1.5-1.7s-1-0.1-1.4,0.3c-0.4,0.5-0.8,1-1.1,1.6c-0.3,0.6-0.7,1.3-1,2.1
			c-1.7,4.8-2.6,10.8-2.6,18c0.1,1.8-0.5,3.4-1.8,4.7s-2.9,1.9-4.6,1.9c-1.8,0-3.3-0.6-4.5-1.9c-1.2-1.3-1.8-2.8-2.1-4.7
			c-0.2-1.3-0.4-3.1-0.5-5.5s-0.3-4.6-0.4-6.6c-0.2-2-0.5-3.8-1.1-5.5c-0.6-2-1.2-3.1-1.9-3.5c-0.5-0.1-1.1,0.1-1.9,0.7
			c-1.5,1-3,3.9-4.5,8.5c-0.3,1-0.7,2.2-1,3.6c0,1.2,0,2.1,0,2.8c0.5,7.6,0.7,12.6,0.7,14.9c0,0.6,0.1,1.7,0.2,3.4s0.2,3,0.2,4
			s-0.1,2.1-0.4,3.5c-0.3,1.3-0.7,2.4-1.1,3.2c-0.9,1.4-2.2,2.2-3.8,2.4c-1.6,0.2-3-0.2-4.1-1.4c-0.8-0.8-1.5-1.8-2-3.1
			s-0.8-2.3-1-3.2c-0.1-0.9-0.3-2.2-0.5-4.1c-0.2-1.9-0.4-3-0.5-3.4c-0.5-3.5-0.9-8.4-1.2-14.7c0-0.9-0.1-3.2-0.4-6.8
			s-0.4-6.3-0.4-8s0.1-4,0.4-6.7c0.3-2.8,0.9-5.2,1.8-7.3c0.7-1.7,2-2.8,3.9-3.2s3.4,0.3,4.4,2.2c1,2.1,1.8,4.4,2.4,6.9
			c1.1-1.4,2.4-2.5,3.8-3.5c2.8-1.4,5.5-1.7,8.3-1s5.2,2.1,7.3,4.3c1.4-2.2,3.1-4,5.2-5.4c2.5-1.6,5.2-2.4,8.1-2.2
			c2.9,0.1,5.6,1,8.1,2.6c4.5,2.9,7.6,7.5,9.3,14c0.8,3.1,1.2,6.3,1.3,9.5c0.1,3.2-0.1,7.2-0.6,11.8c-0.5,4.7-0.7,7.8-0.7,9.4
			c-0.2,6.1,0.1,10.5,0.9,13.3c0.7,2.1,1.9,3.6,3.6,4.7C340.4,237.7,342.2,237.7,344,236.5z"/>
		<path class="st2" d="M403,204.9c1.2-1.5,2.6-1.7,4.5-0.6c1.8,1.1,2.4,2.5,1.7,4.2c-2.5,6.1-6.4,11.3-11.6,15.6s-10.9,7.1-17.3,8.2
			c-6.6,1-11.9,0.9-15.9-0.5c-6.2-2.4-10.9-6.6-14-12.4c-2.1-4.1-3.3-8.6-3.7-13.5c-0.4-4.8,0.2-9.6,1.9-14.3
			c1.7-4.7,4.4-8.4,8.2-11.1c5.8-4,11.5-5.3,17.3-3.8c6,1.6,8.9,6,8.8,13.3c0,5.8-1.6,10.7-4.9,14.9s-7.6,6.8-13,7.9
			c1.5,2.7,3.6,4.3,6.3,4.9c2.7,0.6,6,0.8,9.8,0.4c4.3-0.5,7.5-1.5,9.8-3.1C396.9,210.8,400.9,207.4,403,204.9z M370.8,188
			c-3.3,1.3-5.7,3.7-7.1,7.3s-1.7,7.4-1,11.3c5-1.6,8.5-4.5,10.7-8.6c1.5-2.6,2.1-5.3,1.7-7.9c-0.1-1.5-0.5-2.4-1.2-2.7
			C373.2,187.1,372.2,187.3,370.8,188z"/>
		<path class="st2" d="M469,203.3c1-1.3,2.4-1.4,4.1-0.4s2.3,2.3,1.7,3.9c-1.4,3.5-2.4,5.9-3,7.3c-0.6,1.4-1.7,3.4-3.2,6.1
			c-1.5,2.7-3.1,4.9-4.8,6.7c-1.7,1.7-3.7,3.1-5.9,4.1c-5.2,2.4-10.2,2.4-15-0.1s-7.7-6.5-8.6-12.2c-0.2-1.3-0.4-2.7-0.5-4.2
			c-0.1-1.6-0.1-2.9-0.1-3.9c0.1-1,0.1-2.5,0.2-4.3s0.1-3.2,0.1-4c0.2-2.1,0.3-4.6,0.1-7.7c-0.2-3.1-0.8-5.6-1.8-7.5
			c-0.9-1.6-2-2.6-3.4-3.1c-1.3-0.5-2.7-0.4-4.1,0.1s-2.7,1.5-4,2.9c-3,2.8-5,5.9-5.9,9.5c0.1,2.8,0.2,4.7,0.3,5.7
			c0.1,1.6,0.3,4.2,0.7,7.7c0.3,3.5,0.6,6.7,0.8,9.4s0.2,5.4,0.1,7.8c-0.1,2.3-1.1,4-2.9,5.2s-3.7,1.4-5.7,0.8c-2-0.6-3.3-2-3.9-4.2
			c-1.4-5.1-2.3-13.7-2.8-25.9c-0.5-11.2,0.1-19.7,1.6-25.6c0.5-2.3,2-3.5,4.7-3.5c2.6,0,4.3,1.2,4.8,3.5c0.2,1.4,0.5,3,0.9,4.8
			c2.6-2.8,5.5-4.8,8.5-6c5.2-2.1,10-1.8,14.3,0.9c4.4,2.7,7.5,6.6,9.3,11.9c1.4,4,2.1,9.8,2.1,17.5c0,0.2-0.1,1.2-0.2,2.8
			s-0.2,3-0.2,4.1s0.2,2.2,0.5,3.5c0.3,1.2,0.9,2,1.6,2.5c2.3,1.7,5.7,0.4,10.2-4c1-1,2.1-2.2,3.1-3.5s2.2-2.8,3.5-4.5
			C467.5,205.4,468.4,204.2,469,203.3z"/>
		<path class="st2" d="M514.2,246.7c3,2.2,4.6,4.9,4.8,8.2c0.2,3.3-0.6,6.3-2.4,9.2c-1.8,2.8-4.3,5.3-7.3,7.5
			c-3.1,2.2-6,3.5-8.9,3.8c-6.7,0.7-12.4-1.3-17.3-6c-4.8-4.7-8.4-10.5-10.5-17.4c-3.5-10.5-5.2-25.4-5.2-44.8
			c0-16.8,0.9-33.5,2.6-49.9c-5.8-0.1-9.7-0.2-11.8-0.2c-1.5-0.1-2.6-0.8-3.2-2s-0.6-2.4,0-3.7s1.7-1.9,3.2-1.9
			c4.4-0.2,8.6-0.4,12.8-0.5c1.3-10.9,2.9-21.8,5-32.5c0.5-2.3,1.8-3.7,3.9-4.3c2.1-0.6,4.1-0.3,6,0.9c1.8,1.2,2.7,2.9,2.6,5.2
			c-0.2,4.4-0.6,14.5-1.2,30.4c6.6-0.1,11.6,0.2,15.2,0.9c1.6,0.3,2.4,1.5,2.4,3.4s-0.8,3-2.4,3.4c-3.9,1-9.1,1.5-15.6,1.4
			c-0.2,3.9-0.4,6.6-0.5,8.1c-0.8,18.3-1.2,33.6-1.2,45.8c0.1,8.8,0.6,16.2,1.4,22.3c1.2,8.3,2.6,14.5,4.3,18.5c1,2.3,2.5,4.3,4.3,6
			s3.9,2.3,6.2,1.7c1-0.2,2.3-1,3.8-2.4s1.9-2.5,1.2-3.5c-1.5-2.2-1.2-4.4,1-6.7C509.7,245.3,511.9,245,514.2,246.7z"/>
		<path class="st2" d="M536.5,208.5c1.6-1.5,3.3-1.6,4.9-0.3c1.7,1.3,2,2.9,1.1,4.8c-1.3,2.7-2.7,5.1-4.4,7.4
			c-1.7,2.3-3.6,4.4-5.8,6.4s-4.5,3.5-6.8,4.6c-2.4,1.1-5,1.5-7.8,1.3s-5.6-1.3-8.4-3.1c-3.2-2.1-5.7-5-7.4-8.7
			c-1.7-3.7-2.5-7.6-2.4-11.7c0.1-2.5,0.5-6.7,1.2-12.6c0.7-6,1.4-10.2,2.2-12.6c0.7-2,2-3.3,3.9-3.9c1.9-0.6,3.7-0.4,5.3,0.6
			s2.4,2.7,2.4,4.8c0.2,3.2-0.2,9.7-1.2,19.5c-0.6,6.2,0.2,10.8,2.2,13.7c1.3,1.5,2.6,2.3,4.1,2.4c1.5,0.1,3.1-0.4,4.8-1.6
			c1.7-1.2,3.2-2.3,4.5-3.5s2.7-2.6,4.3-4.4C535,209.9,536.1,208.9,536.5,208.5z M516.7,168.6c-1.2,2.3-3.1,3.5-5.9,3.5
			s-4.7-1.2-5.8-3.5c-1.1-2.3-1.1-4.6,0-6.8c1.1-2.2,3-3.4,5.8-3.4s4.7,1.1,5.9,3.4C517.8,164,517.8,166.3,516.7,168.6z"/>
		<path class="st2" d="M602.4,203.3c1-1.3,2.4-1.4,4.1-0.4c1.7,1,2.3,2.3,1.7,3.9c-1.4,3.5-2.4,5.9-3,7.3c-0.6,1.4-1.7,3.4-3.2,6.1
			c-1.5,2.7-3.1,4.9-4.8,6.7c-1.7,1.7-3.7,3.1-5.9,4.1c-5.2,2.4-10.2,2.4-15-0.1s-7.7-6.5-8.6-12.2c-0.2-1.3-0.4-2.7-0.5-4.2
			c-0.1-1.6-0.1-2.9-0.1-3.9c0.1-1,0.1-2.5,0.2-4.3c0.1-1.8,0.1-3.2,0.1-4c0.2-2.1,0.3-4.6,0.1-7.7c-0.2-3.1-0.8-5.6-1.8-7.5
			c-0.9-1.6-2-2.6-3.4-3.1c-1.3-0.5-2.7-0.4-4.1,0.1c-1.4,0.5-2.7,1.5-4,2.9c-3,2.8-5,5.9-5.9,9.5c0.1,2.8,0.2,4.7,0.3,5.7
			c0.1,1.6,0.3,4.2,0.7,7.7c0.3,3.5,0.6,6.7,0.8,9.4s0.2,5.4,0.1,7.8c-0.1,2.3-1.1,4-2.9,5.2c-1.8,1.2-3.7,1.4-5.7,0.8
			c-2-0.6-3.3-2-3.9-4.2c-1.4-5.1-2.3-13.7-2.8-25.9c-0.5-11.2,0.1-19.7,1.6-25.6c0.5-2.3,2-3.5,4.7-3.5c2.6,0,4.3,1.2,4.8,3.5
			c0.2,1.4,0.5,3,0.9,4.8c2.6-2.8,5.5-4.8,8.5-6c5.2-2.1,10-1.8,14.3,0.9c4.4,2.7,7.5,6.6,9.3,11.9c1.4,4,2.1,9.8,2.1,17.5
			c0,0.2-0.1,1.2-0.2,2.8c-0.1,1.6-0.2,3-0.2,4.1s0.2,2.2,0.5,3.5c0.3,1.2,0.9,2,1.6,2.5c2.3,1.7,5.7,0.4,10.2-4
			c1-1,2.1-2.2,3.1-3.5s2.2-2.8,3.5-4.5C600.9,205.4,601.8,204.2,602.4,203.3z"/>
		<path class="st2" d="M653.5,204.9c1.2-1.5,2.6-1.7,4.5-0.6c1.8,1.1,2.4,2.5,1.7,4.2c-2.5,6.1-6.4,11.3-11.6,15.6
			c-5.2,4.3-10.9,7.1-17.3,8.2c-6.6,1-11.9,0.9-15.9-0.5c-6.2-2.4-10.9-6.6-14-12.4c-2.1-4.1-3.3-8.6-3.7-13.5
			c-0.4-4.8,0.2-9.6,1.9-14.3s4.4-8.4,8.2-11.1c5.8-4,11.5-5.3,17.3-3.8c6,1.6,8.9,6,8.8,13.3c0,5.8-1.6,10.7-4.9,14.9
			c-3.3,4.2-7.6,6.8-13,7.9c1.5,2.7,3.6,4.3,6.3,4.9c2.7,0.6,6,0.8,9.8,0.4c4.3-0.5,7.5-1.5,9.8-3.1
			C647.4,210.8,651.4,207.4,653.5,204.9z M621.4,188c-3.3,1.3-5.7,3.7-7.1,7.3s-1.7,7.4-1,11.3c5-1.6,8.5-4.5,10.7-8.6
			c1.5-2.6,2.1-5.3,1.7-7.9c-0.1-1.5-0.5-2.4-1.2-2.7C623.8,187.1,622.8,187.3,621.4,188z"/>
	</g>
	<g class="st1">
		<path class="st3" d="M312.9,316.2c0.6-0.7,1.3-0.8,2.2-0.3c0.9,0.5,1.2,1.3,0.9,2.1c-1.3,3.1-3.2,5.7-5.8,7.8
			c-2.6,2.2-5.5,3.5-8.6,4.1c-3.3,0.5-5.9,0.4-7.9-0.3c-3.1-1.2-5.4-3.3-7-6.2c-1-2.1-1.7-4.3-1.9-6.7c-0.2-2.4,0.1-4.8,1-7.2
			c0.8-2.4,2.2-4.2,4.1-5.5c2.9-2,5.8-2.6,8.6-1.9c3,0.8,4.5,3,4.4,6.7c0,2.9-0.8,5.4-2.5,7.5c-1.6,2.1-3.8,3.4-6.5,3.9
			c0.7,1.3,1.8,2.1,3.2,2.5c1.4,0.3,3,0.4,4.9,0.2c2.1-0.2,3.8-0.7,4.9-1.6C309.9,319.2,311.9,317.5,312.9,316.2z M296.9,307.8
			c-1.7,0.6-2.9,1.9-3.5,3.7s-0.9,3.7-0.5,5.7c2.5-0.8,4.3-2.2,5.4-4.3c0.7-1.3,1-2.6,0.9-4c-0.1-0.7-0.3-1.2-0.6-1.3
			C298.1,307.3,297.6,307.4,296.9,307.8z"/>
		<path class="st3" d="M336.9,316.3c1-0.3,1.7,0,2,1c0.4,0.9,0.2,1.7-0.6,2.2c-0.5,0.3-1.8,0.9-4.1,1.9c-0.6,0.2-1.4,0.6-2.3,1.1
			c-1,0.5-1.6,0.8-1.9,0.9c-0.4,0.2-1.1,0.5-2,0.9c-1,0.4-1.7,0.8-2.2,1c2.4,5.8,2.5,10.4,0.3,13.8c-0.9,1.5-2.1,2.6-3.7,3.3
			c-1.5,0.7-3.1,0.8-4.6,0.3s-2.8-1.4-3.8-2.7c-1-1.3-1.6-2.8-1.8-4.3c-0.5-3.9,1.2-7.4,4.9-10.7c-0.1-0.2-0.2-0.3-0.2-0.3
			c-0.9-1.8-1.5-3.1-1.9-3.8c-0.3-0.7-0.7-1.9-1.3-3.3c-0.5-1.5-0.9-2.8-1-4c-0.7-4.4,0.3-8,3-10.6c1.2-1.2,2.7-1.8,4.7-2
			s3.6,0.2,5,1c1.3,0.7,2.2,1.8,2.9,3.2c0.7,1.4,1,2.8,0.8,4.2c-0.2,1.6-1,2.9-2.3,3.8s-2.7,0.9-4.2,0c-0.9-0.6-1.1-1.4-0.7-2.4
			s1.1-1.3,2.2-1.1c0.7,0.2,1-0.1,1-1c-0.1-1.1-0.5-1.9-1.2-2.5c-0.1-0.1-0.2-0.1-0.3-0.1c-1.3-0.7-2.3-0.2-3,1.6
			c-0.2,0.6-0.4,1.2-0.4,1.9c0,0.7,0,1.4,0.1,2s0.3,1.3,0.5,2.2c0.3,0.8,0.5,1.5,0.6,1.9c0.2,0.5,0.4,1.1,0.8,1.9
			c0.1,0.2,0.2,0.4,0.2,0.5c0.3,0.7,0.7,1.6,1.3,2.9c1.8-0.9,3.7-1.6,5.9-2.3C334.4,317.1,336.8,316.3,336.9,316.3z M320.9,334.6
			c0.1-0.9-0.3-2.5-1.4-4.7c0-0.1,0-0.1,0-0.2s0-0.1,0-0.2c-1.7,1.9-2.3,3.7-1.9,5.4c0.3,1.2,0.9,1.7,1.8,1.6
			C320.2,336.4,320.7,335.8,320.9,334.6z"/>
		<path class="st3" d="M358.6,337.1c1.5,1.1,2.3,2.5,2.4,4.1s-0.3,3.2-1.2,4.6c-0.9,1.4-2.1,2.7-3.7,3.8c-1.5,1.1-3,1.7-4.5,1.9
			c-3.3,0.3-6.2-0.6-8.6-3c-2.4-2.3-4.2-5.2-5.3-8.7c-1.7-5.2-2.6-12.7-2.6-22.4c0-8.4,0.4-16.7,1.3-25c-2.9-0.1-4.8-0.1-5.9-0.1
			c-0.7-0.1-1.3-0.4-1.6-1c-0.3-0.6-0.3-1.2,0-1.9c0.3-0.6,0.9-1,1.6-1c2.2-0.1,4.3-0.2,6.4-0.3c0.6-5.5,1.5-10.9,2.5-16.2
			c0.2-1.2,0.9-1.9,1.9-2.2c1.1-0.3,2.1-0.1,3,0.4c0.9,0.6,1.4,1.4,1.3,2.6c-0.1,2.2-0.3,7.3-0.6,15.2c3.3-0.1,5.8,0.1,7.6,0.4
			c0.8,0.2,1.2,0.7,1.2,1.7s-0.4,1.5-1.2,1.7c-2,0.5-4.6,0.7-7.8,0.7c-0.1,2-0.2,3.3-0.3,4.1c-0.4,9.2-0.6,16.8-0.6,22.9
			c0.1,4.4,0.3,8.1,0.7,11.1c0.6,4.1,1.3,7.2,2.2,9.2c0.5,1.2,1.2,2.2,2.2,3c0.9,0.9,2,1.2,3.1,0.9c0.5-0.1,1.2-0.5,1.9-1.2
			c0.7-0.7,1-1.3,0.6-1.7c-0.7-1.1-0.6-2.2,0.5-3.4C356.4,336.4,357.5,336.3,358.6,337.1z"/>
		<path class="st3" d="M395.1,319c0.7-0.7,1.7-0.8,2.7-0.3c1.1,0.6,1.4,1.4,1,2.5c-2,5.6-5,9.4-9.1,11.3c-2,1.2-4.2,1.7-6.7,1.7
			s-4.7-0.8-6.4-2.3c-1.2-1-2.2-2.3-3-3.8s-1.4-3.2-1.7-5c-0.3-1.8-0.5-3.5-0.6-5s-0.1-3.2-0.1-5.1c0.1-4.6,0.8-10.2,2.2-16.8
			c1.1-5.4,2.4-10,3.9-13.8c0.6-1.3,1.3-2.5,2.2-3.4c0.9-1,1.9-1.6,3.1-1.9s2.5-0.1,3.8,0.8c1.2,0.7,2.1,1.8,2.6,3.4
			s0.8,3.1,0.7,4.6c-0.1,1.5-0.1,3-0.3,4.4c-0.8,8.4-4.1,16.9-9.9,25.4c0.1,1,0.1,2.1,0.2,3.3l0.1,0.3c0,0.1,0,0.1,0,0.2
			c0.1,0.3,0.1,0.5,0.1,0.6c0.1,0.6,0.2,1.1,0.3,1.6c0.1,0.6,0.3,1.2,0.5,1.9c0.1,0.1,0.1,0.1,0.1,0.3h0.1c0.1,0.3,0.2,0.6,0.3,0.9
			c0.1,0.1,0.1,0.2,0.2,0.3c0.1,0.1,0.2,0.3,0.4,0.6c0.2,0.2,0.3,0.3,0.3,0.3c0.1,0.1,0.1,0.1,0.2,0.1c0.2,0.2,0.5,0.3,0.7,0.5
			c0.1,0,0.1,0,0.2,0.1h0.1c0.5,0.2,0.9,0.3,1.3,0.3c1,0,2.2-0.3,3.5-1c0.9-0.5,1.7-1.1,2.4-1.9c0.7-0.7,1.6-1.6,2.6-2.6
			C393.9,320.2,394.6,319.5,395.1,319z M382.2,290.1c-1.6,7.1-2.5,13.5-2.8,19.1c3.4-6.4,5.4-12.5,6-18.2c0.2-2.1,0.2-4.2,0-6.2
			c-0.1-0.3-0.2-0.8-0.3-1.4c-0.1-0.6-0.2-1-0.2-1.1l-0.3-0.5l-0.3,0.2c-0.5,0.6-0.8,1.4-1.1,2.3c-0.3,0.9-0.5,2-0.7,3.4
			C382.4,288.9,382.3,289.7,382.2,290.1z"/>
		<path class="st3" d="M427,316.1c0.6-0.5,1.3-0.6,2.1-0.2c0.8,0.4,1.1,1,0.8,1.8c-0.5,1.3-1.1,2.6-1.9,4s-1.7,2.7-2.9,4.1
			c-1.2,1.3-2.4,2.4-3.6,3.2c-1.3,0.8-2.6,1.2-4.1,1.2s-2.9-0.6-4.2-1.8c-1-0.9-1.8-2.1-2.4-3.5c-2.1,2.1-4.6,3.3-7.4,3.5
			c-2.5,0.2-4.7-0.4-6.6-1.7c-1.9-1.3-3.3-3-4.1-5.1c-0.8-2-1.2-4.3-1.2-6.7c0-2.4,0.6-4.6,1.7-6.6c1-2,2.6-3.6,4.6-4.9
			c2-1.2,4.1-1.8,6.4-1.8c3.8,0,6.9,1.4,9.2,4.1c0.2-0.4,0.5-1,0.9-1.9c0.4-0.8,0.7-1.4,0.9-1.8c0.4-0.9,1.1-1.2,2.2-0.7
			s1.4,1.2,1.1,2.2c-1.2,3.6-2,7.1-2.7,10.4c-0.9,4.5-0.7,7.7,0.6,9.8c0.4,0.6,0.9,1,1.5,1.2c0.6,0.1,1.2,0,1.7-0.3
			c0.6-0.3,1.2-0.8,1.7-1.3c0.6-0.5,1.2-1.2,1.8-2c0.6-0.8,1.1-1.5,1.6-2.2s0.9-1.3,1.4-1.9C426.4,316.8,426.7,316.4,427,316.1z
			 M402.1,320.9c0.6,0.2,1.2,0.3,1.6,0.3c0.5,0.1,1,0,1.5-0.3s1-0.5,1.4-0.8s0.8-0.6,1.2-1.2c0.4-0.5,0.8-1,1.1-1.3
			c0.3-0.4,0.6-0.8,1-1.3c0.1-0.3,0.1-0.7,0.2-1c0.3-1.7,0.8-3.5,1.5-5.4c-3.2-2.6-6.1-3.3-8.6-1.8c-1.3,0.7-2.2,1.8-2.9,3.3
			c-0.5,1-0.8,2.2-0.9,3.5c0,0.5,0,0.9,0,1.3v0.3c0.1,0.1,0.1,0.2,0.1,0.3c0.1,0.3,0.1,0.6,0.3,1c0.1,0.3,0.2,0.5,0.3,0.6
			C400.4,319.7,401.2,320.5,402.1,320.9z"/>
	</g>
	<g>
		<path class="st0" d="M572.8,117.4c-1.1-3.8-3.7-7.1-7.3-8.8c-1.8-0.8-3.9-0.5-4.9,1.3c-0.9,1.6-0.5,4.1,1.3,4.9
			c1.1,0.5,1.9,1.1,2.5,1.8c-0.2,1.1,0.2,2.3,1,3.2c0.5,0.7,1.3,1.3,2.1,1.6c1.3,0.6,2.8,0.7,4-0.3
			C572.6,120.3,573.2,118.8,572.8,117.4z"/>
	</g>
</g>
<g id="char">
	<g class="st4">
		<path class="st5" d="M770.6-29.9c5.3,1.8,9.3,5.4,12.2,10.2c5.2,8.6,6.7,18,5.1,27.8c-1.8,10.7-6.1,20.4-12.9,28.9
			c-3.3,4.2-7.2,7.8-12.2,9.9c-4.4,1.9-8.9,2.4-13.6,0.8c-2-0.7-4-1.3-6-1.9c-0.8-0.2-1.4-0.1-2.2,0.2c-6.6,2.8-13.3,4-20.1,0.7
			c-5.2-2.5-9.1-6.3-12.5-10.9c-6.7-9.2-11-19.4-12-30.7c-1-10.5,1.2-20.4,8.3-28.7C710-29.8,717-32,725-30.9
			c5.3,0.8,10.1,2.8,14.6,5.8c-0.2,0.5-0.6,0.8-1.1,1c-1,0.5-1.3,1.8-0.7,2.7c1.4,2.1,5.1,3,7.5,1.9c1.1-0.5,1.6-1.8,0.9-2.8
			c-0.8-1.1-0.6-2.1,0-3.1c0.1-0.2,0.6-0.4,0.1-0.7c2.4-1.6,5.1-2.6,7.7-3.6c3.3,0.8,6.7,1.1,10.1,0.9c0.6,0,1.1,0,1.6-0.4
			c0.2,0,0.4,0,0.6,0l0,0c0.2-0.1,0.3-0.1,0.5-0.2C768.2-29.1,769.3-29.8,770.6-29.9z"/>
		<path class="st6" d="M740.1-24.9c0.8-1.8,1.1-3.7,1.4-5.6c0.6-3.6,0.8-7.2-0.2-10.8c-1.6-6.4-5.9-10-12.1-11.8
			c-1.4-0.4-2.9-0.6-4.4-0.7c-1.5-0.1-2.6-1.3-2.5-2.8s1.2-2.7,2.7-2.5c8.9,0.8,16.3,4,20.3,12.6c1.3,2.7,1.9,5.7,1.9,8.7
			c0,0.1,0,0.2,0,0.3c0.1,0.7,0.1,1.4,0,2.1c0,0.6-0.6,1.1-0.6,1.8c-0.3,0.3-1,0.2-0.8,0.8c0.1,0.5,0.7,0.2,1.1,0.3
			c0,0.2,0,0.4,0.1,0.6c-0.1,2.1-0.6,4.1-1,6.1c-0.6,1-0.7,2.2-1,3.3c-0.3,1.2-1.5,2.1-2.7,1.9c-1.3-0.1-2.3-1.2-2.3-2.4
			C740-23.7,740-24.3,740.1-24.9z"/>
		<path class="st7" d="M747-32.6c-0.4-0.1-0.9,0.2-1.1-0.3c-0.2-0.6,0.5-0.6,0.8-0.8c2.8-0.5,5.4-1.4,8.1-2.1
			c0.4-0.1,0.6-0.4,0.8-0.7c1.5-2.6,3-5.1,4.4-7.7c0.3-0.6,1-1.2,0.8-2c0.4-0.4,0.9-0.4,1.4-0.5c0.3,0.4,0,0.7-0.2,1
			c-1.3,2.3-2.7,4.6-4,6.9c-0.4,0.8-1.1,1.4-1.2,2.5c2.1-0.6,4.1-1.1,6-1.6c0.5-0.1,0.7-0.6,0.9-0.9c1-1.6,1.9-3.3,2.8-5
			c0.7-1.4,1.8-2.6,2.2-4.1c0.4-0.1,0.8-0.1,1.2,0c-0.1,0.2-0.2,0.4-0.3,0.6c-1.5,2.5-3,5.1-4.4,7.7c-0.2,0.3-0.5,0.6-0.2,0.9
			c0.2,0.2,0.6,0,0.8,0c1.5-0.4,3.1-0.8,4.7-1.3c0.4-0.1,0.8-0.2,0.9-0.6c1.2-2.2,2.7-4.3,3.7-6.7c0.4,0,0.7,0,1,0.3
			c-0.1,0.5-0.4,1-0.7,1.4c-0.9,1.5-1.9,3.1-2.7,4.9c3-0.8,5.8-1.5,8.6-2.3c0.8-0.2,1.8-0.2,2.5-0.9c0.5,0.2,1.3,0.4,0.5,1.2
			c-0.1,0.1-0.2,0.2-0.3,0.2l0,0c-1.1-0.1-2.1,0.4-3.2,0.7c-2.6,0.7-5.2,1.4-8,2.1c2.1,1.2,4,2.3,5.9,3.4c0.2,0.1,0.5,0.1,0.8,0.1
			c-0.3,0.4-0.6,0.7-1,1c-2.2-1.3-4.3-2.5-6.5-3.8c-0.2-0.1-0.5-0.2-0.7-0.2c-2.1,0.5-4.2,1.1-6.5,1.7c3.3,1.9,6.3,3.7,9.3,5.5
			c-0.3,0.4-0.7,0.7-1.2,0.8c0-0.4-0.3-0.6-0.6-0.7c-2.8-1.6-5.6-3.2-8.5-4.9c-0.4-0.2-0.8-0.3-1.3-0.1c-1.6,0.5-3.3,0.9-4.9,1.3
			c-0.2,0.1-0.6,0-0.7,0.3c-0.1,0.4,0.3,0.4,0.6,0.6c2.7,1.6,5.5,3.2,8.2,4.8c0.3,0.2,0.8,0.3,0.7,0.8c-0.2,0.1-0.3,0.1-0.5,0.2l0,0
			c-0.2,0-0.4,0-0.6,0c-3.2-1.9-6.4-3.7-9.5-5.6c-0.4-0.2-0.7-0.4-1.2-0.3C752.4-34.2,749.7-33.6,747-32.6z"/>
		<path class="st8" d="M760.9-46.3c0.2,0.8-0.5,1.4-0.8,2c-1.4,2.6-3,5.1-4.4,7.7c-0.2,0.3-0.4,0.6-0.8,0.7
			c-2.7,0.7-5.4,1.6-8.1,2.1c-0.1-0.7,0.5-1.1,0.6-1.8c0.7-0.1,0.8-0.7,1.2-1.1c3.2-4,7-7.3,11.7-9.4
			C760.4-46.1,760.7-46.2,760.9-46.3z"/>
		<path class="st8" d="M767-29.2c0.1-0.6-0.4-0.6-0.7-0.8c-2.8-1.6-5.5-3.2-8.2-4.8c-0.2-0.1-0.7-0.2-0.6-0.6
			c0.1-0.3,0.4-0.3,0.7-0.3c1.6-0.4,3.3-0.8,4.9-1.3c0.5-0.1,0.9-0.1,1.3,0.1c2.8,1.6,5.6,3.2,8.5,4.9c0.3,0.2,0.7,0.3,0.6,0.7
			c-0.8,0.6-2,0.7-2.8,1.4C769.3-29.8,768.2-29.1,767-29.2z"/>
		<path class="st8" d="M769-48c-0.4,1.5-1.5,2.8-2.2,4.1c-0.9,1.7-1.9,3.3-2.8,5c-0.2,0.4-0.4,0.8-0.9,0.9c-2,0.5-4,1-6,1.6
			c0.1-1.1,0.7-1.8,1.2-2.5c1.3-2.3,2.6-4.6,4-6.9c0.2-0.3,0.4-0.6,0.2-1c1.5-0.6,3.1-0.9,4.7-1.1c0.2,0.2,0.3,0.2,0.5,0
			C768-48,768.5-48,769-48z"/>
		<path class="st8" d="M774.5-32.1c-3-1.8-6.1-3.6-9.3-5.5c2.3-0.6,4.4-1.2,6.5-1.7c0.2-0.1,0.5,0.1,0.7,0.2
			c2.2,1.3,4.3,2.5,6.5,3.8C777.6-34,776.2-32.8,774.5-32.1z"/>
		<path class="st8" d="M775.5-47.3c-1,2.4-2.5,4.4-3.7,6.7c-0.2,0.4-0.6,0.5-0.9,0.6c-1.5,0.4-3.1,0.8-4.7,1.3
			c-0.3,0.1-0.6,0.3-0.8,0c-0.3-0.3,0-0.6,0.2-0.9c1.5-2.6,3-5.1,4.4-7.7c0.1-0.2,0.2-0.4,0.3-0.6C772-48.1,773.8-47.9,775.5-47.3z"
			/>
		<path class="st8" d="M784.2-43.9c-0.7,0.7-1.6,0.6-2.5,0.9c-2.8,0.8-5.6,1.5-8.6,2.3c0.9-1.9,1.8-3.4,2.7-4.9
			c0.3-0.5,0.6-0.9,0.7-1.4c1.4,0.1,2.7,0.7,4,1.3C781.7-45.2,782.9-44.5,784.2-43.9z"/>
		<path class="st8" d="M779.8-36.3c-0.3,0-0.6,0-0.8-0.1c-1.9-1.1-3.7-2.2-5.9-3.4c2.8-0.8,5.4-1.5,8-2.1c1-0.3,2-0.8,3.2-0.7
			c-0.6,1.6-1.7,2.9-2.7,4.2C781.1-37.6,780.4-37,779.8-36.3z"/>
		<path class="st9" d="M740.1-24.9c0,0.6-0.1,1.2-0.1,1.8c0,1.3,1,2.3,2.3,2.4s2.4-0.8,2.7-1.9c0.3-1.1,0.4-2.3,1-3.3
			c0.2,0,0.3,0,0.5,0c0.5,0.3,0,0.5-0.1,0.7c-0.6,1-0.8,2,0,3.1c0.7,1,0.2,2.2-0.9,2.8c-2.3,1.1-6,0.2-7.5-1.9
			c-0.6-0.9-0.3-2.2,0.7-2.7c0.5-0.3,0.9-0.6,1.1-1C739.9-25,740-25,740.1-24.9z"/>
		<path class="st7" d="M767.5-48c-0.1,0.2-0.3,0.2-0.5,0C767.2-48.1,767.3-48.1,767.5-48z"/>
		<path class="st8" d="M784.3-42.6c0.1-0.1,0.2-0.2,0.3-0.2C784.5-42.7,784.4-42.6,784.3-42.6z"/>
		<path class="st8" d="M747.3-37.7c0-0.1,0-0.2,0-0.3C747.3-37.9,747.3-37.8,747.3-37.7L747.3-37.7z"/>
		<path class="st8" d="M747-32.6c2.7-0.9,5.5-1.5,8.2-2.3c0.4-0.1,0.8,0.1,1.2,0.3c3.2,1.9,6.4,3.7,9.5,5.6c-0.5,0.3-1,0.4-1.6,0.4
			c-3.4,0.2-6.8-0.1-10.1-0.9c-2.2-0.8-4.4-1.5-6.5-2.5c-0.2-0.1-0.4-0.1-0.7,0C747-32.3,747-32.5,747-32.6z"/>
		<path class="st10" d="M747.1-32.1c0.2,0,0.4,0,0.7,0c2.1,1,4.3,1.7,6.5,2.5c-2.7,1-5.3,2-7.7,3.6c-0.2,0-0.3,0-0.5,0
			C746.5-28,747-30,747.1-32.1z"/>
		<path class="st8" d="M766.5-29L766.5-29L766.5-29z"/>
	</g>
	<path class="st2" d="M596.2,297.9c-8.2-9.8-21.5-12-33.4-8.7c-14.6-2.6-30,1.1-42.2,9.4c-8.6,5.9-12.2,15-13.5,24.7
		c-0.6,1.8-1.1,3.6-1.6,5.6c-3.1,14.6-0.5,29.1,11.6,38.8c10.8,8.7,24.2,14.2,37.9,16.3c13.2,2,28.7,1.8,39.1-7.8
		c10.3-9.5,13.2-25.1,13.2-38.5C607.6,324.5,604.9,308.4,596.2,297.9z"/>
	<g id="eyes">
		<path class="st11" d="M546.9,322.1c-1-1.5-4-1.7-5.9-1.9c-7.8-0.6-15.1,5.7-15.8,13.5c-0.7,8.6,10.4,14,18.2,9.6
			c8.8-5,7.1-7.5,7-10.4C550.3,328.6,550.7,324.4,546.9,322.1z"/>
		<g>
			<path class="st12" d="M546.9,336.5c-0.3-1.8-1.9-4.8-3.6-5.4c-1-0.3-2.7-0.6-3.6,0c0,0-1.8,0-3.6,1.8c-1.8,3.6-0.4,6.5,2.6,8.3
				C542,343.1,547.6,340.3,546.9,336.5z"/>
			<path class="st12" d="M541.3,337.6c0,0,0.1-0.1,0.2-0.1C541.4,337.5,541.3,337.6,541.3,337.6L541.3,337.6z"/>
		</g>
		<path class="st12" d="M533.3,325.8c-0.3-0.5-0.7-0.8-1.3-1c-1.6-0.3-3.1,1.3-2.7,2.9c0.4,1.5,2.3,1.9,3.5,1.3
			C534.1,328.3,534.1,326.8,533.3,325.8z"/>
		<path class="st11" d="M586.5,320.3c-1-1.5-4-1.7-5.9-1.9c-7.8-0.6-15.1,5.7-15.8,13.5c-0.7,8.6,10.4,14,18.2,9.6
			c8.8-5,7.1-7.5,7-10.4C589.9,326.8,590.3,322.6,586.5,320.3z"/>
		<path class="st12" d="M586.5,334.7c-0.3-1.8-1.9-4.8-3.6-5.4c-1-0.3-2.7-0.6-3.6,0c0,0-1.8,0-3.6,1.8c-1.8,3.6-0.4,6.5,2.6,8.3
			C581.6,341.3,587.2,338.4,586.5,334.7z"/>
		<path class="st12" d="M572.9,324c-0.3-0.5-0.7-0.8-1.3-1c-1.6-0.3-3.1,1.3-2.7,2.9c0.4,1.5,2.3,1.9,3.5,1.3
			C573.7,326.5,573.8,325,572.9,324z"/>
	</g>
	<g id="frekkles">
	</g>
	<path class="st13" d="M595.3,346.4c-3.2,0.8-7,1.9-10.7,2.2c3-1.6,6.3-2.6,9.7-2.9c2.3-0.2,2.3-3.8,0-3.6
		c-6.3,0.5-11.8,2.8-16.6,6.9c-1,0.8-0.5,2.8,0.8,3c2.2,0.4,4.6,0.3,7,0c-0.3,0.2-0.7,0.5-1,0.7c-1.5,1.2,0.2,3.3,1.8,3
		c1.3-0.3,2.7-0.5,4-0.7c-0.9,1.5,0.7,3.8,2.3,2.5c1.6-1.2,2.9-2.5,4-4.2c0.7-1-0.2-2.9-1.5-2.7c-0.3,0-0.6,0.1-0.8,0.1
		c0.8-0.4,1.6-0.8,2.4-1.2C598.5,348.8,597.2,345.9,595.3,346.4z"/>
	<path class="st13" d="M516.5,348.2c3.2,0.8,7,1.9,10.7,2.2c-3-1.6-6.3-2.6-9.7-2.9c-2.3-0.2-2.3-3.8,0-3.6
		c6.3,0.5,11.8,2.8,16.6,6.9c1,0.8,0.5,2.8-0.8,3c-2.2,0.4-4.6,0.3-7,0c0.3,0.2,0.7,0.5,1,0.7c1.5,1.2-0.2,3.3-1.8,3
		c-1.3-0.3-2.7-0.5-4-0.7c0.9,1.5-0.7,3.8-2.3,2.5c-1.6-1.2-2.9-2.5-4-4.2c-0.7-1,0.2-2.9,1.5-2.7c0.3,0,0.6,0.1,0.8,0.1
		c-0.8-0.4-1.6-0.8-2.4-1.2C513.2,350.6,514.6,347.7,516.5,348.2z"/>
	<path class="st14" d="M598.9,271.3c-0.3,0.1-0.5,0.1-0.7,0.1c-5,1.4-10,3.7-14.8,5.9c-1.8-5.4,0.5-11.9-3.4-16.9
		c-0.2-0.5-0.5-0.8-1-1.1c-4.8-4.6-12.8-2.2-17.2-6.9c-1.5-1.6-4.2-0.6-4.5,1.4c-0.3,0.4-0.5,0.9-0.6,1.5c-0.4,4.3-1.5,8.4-0.7,12.7
		s2.6,8.6,4.3,12.5c2.5,5.5,8.1,12.8,13.5,12.8c1.8,0,0.6-0.3,1.8,0c0.5,0.1,1.4,0.1,1.8,0c1.8,1.8,5.3,2.9,8.9,4
		c0.6,0.2,1.2,0.3,1.8,0.4c3.5,2.2,7.6,3.3,12.1,2.3s7.8-4,10.4-7.6c1.9-2.5,3.7-5.2,5.1-8c1.4-2.9,2-6.5,4-9.1
		c1.7-2.1,0.1-5-2.6-4.5c-4,0.7-7.9,0-11.9-0.1"/>
	<path class="st15" d="M575.5,278.7c-1.5,1-2.8,2.4-3.5,3.9c-1.9,4.2,1.2,10,5.5,10.7c4,0.6,6-4.7,7.1-8.4c0.7-2.4,1.1-6.4-1.1-7.8
		c-0.1-0.3-0.4-0.5-0.7-0.5c-0.2,0-0.4,0-0.6,0c-0.3,0-0.7-0.1-1.1,0c-0.2,0-0.3,0.1-0.4,0.1c-1.3,0.2-2.7,0.6-3.9,1.3"/>
</g>
<path class="st3" d="M410.5,292.5c-4.2,0.6-8.2-2.5-9.1-6.6c-0.4-1.9-3.3-1.1-2.9,0.8c1.3,5.8,7,9.5,12.8,8.7
	C413.2,295.2,412.3,292.3,410.5,292.5z"/>
</svg>
