<svg id="Layer_1" data-name="Layer 1" xmlns="http://www.w3.org/2000/svg" viewBox="0 0 37.82 37.82"><defs><style>.cls-1{fill:#2c8558;}.cls-2{isolation:isolate;font-size:12px;fill:#fff;font-family:PermanentMarker-Regular, Permanent Marker;}</style></defs><circle class="cls-1" cx="18.91" cy="18.28" r="0.63"/><polygon class="cls-1" points="18.91 0 8.72 17.64 29.1 17.64 18.91 0"/><circle class="cls-1" cx="18.98" cy="18.28" r="0.63"/><polygon class="cls-1" points="20.89 0.1 8.91 16.58 29.17 18.71 20.89 0.1"/><circle class="cls-1" cx="19.04" cy="18.29" r="0.63"/><polygon class="cls-1" points="22.84 0.41 9.21 15.55 29.14 19.79 22.84 0.41"/><circle class="cls-1" cx="19.11" cy="18.31" r="0.63"/><polygon class="cls-1" points="24.75 0.93 9.62 14.56 28.99 20.85 24.75 0.93"/><circle class="cls-1" cx="19.17" cy="18.33" r="0.63"/><polygon class="cls-1" points="26.6 1.63 10.12 13.61 28.73 21.89 26.6 1.63"/><circle class="cls-1" cx="19.23" cy="18.36" r="0.63"/><polygon class="cls-1" points="28.37 2.53 10.72 12.72 28.37 22.9 28.37 2.53"/><circle class="cls-1" cx="19.28" cy="18.4" r="0.63"/><polygon class="cls-1" points="30.03 3.61 11.42 11.9 27.9 23.87 30.03 3.61"/><circle class="cls-1" cx="19.33" cy="18.44" r="0.63"/><polygon class="cls-1" points="31.56 4.86 12.19 11.15 27.33 24.78 31.56 4.86"/><circle class="cls-1" cx="19.38" cy="18.49" r="0.63"/><polygon class="cls-1" points="32.96 6.26 13.04 10.49 26.67 25.63 32.96 6.26"/><circle class="cls-1" cx="19.42" cy="18.54" r="0.63"/><polygon class="cls-1" points="34.21 7.8 13.95 9.92 25.92 26.4 34.21 7.8"/><circle class="cls-1" cx="19.46" cy="18.59" r="0.63"/><polygon class="cls-1" points="35.29 9.46 14.92 9.46 25.1 27.1 35.29 9.46"/><circle class="cls-1" cx="19.49" cy="18.65" r="0.63"/><polygon class="cls-1" points="36.19 11.22 15.93 9.09 24.21 27.7 36.19 11.22"/><circle class="cls-1" cx="19.51" cy="18.71" r="0.63"/><polygon class="cls-1" points="36.89 13.07 16.97 8.83 23.26 28.21 36.89 13.07"/><circle class="cls-1" cx="19.53" cy="18.78" r="0.63"/><polygon class="cls-1" points="37.41 14.98 18.03 8.68 22.27 28.61 37.41 14.98"/><circle class="cls-1" cx="19.54" cy="18.84" r="0.63"/><polygon class="cls-1" points="37.72 16.93 19.11 8.65 21.24 28.91 37.72 16.93"/><circle class="cls-1" cx="19.54" cy="18.91" r="0.63"/><polygon class="cls-1" points="37.82 18.91 20.18 8.72 20.18 29.1 37.82 18.91"/><circle class="cls-1" cx="19.54" cy="18.98" r="0.63"/><polygon class="cls-1" points="37.72 20.89 21.24 8.91 19.11 29.17 37.72 20.89"/><circle class="cls-1" cx="19.53" cy="19.04" r="0.63"/><polygon class="cls-1" points="37.41 22.84 22.27 9.21 18.03 29.14 37.41 22.84"/><circle class="cls-1" cx="19.51" cy="19.11" r="0.63"/><polygon class="cls-1" points="36.89 24.75 23.26 9.62 16.97 28.99 36.89 24.75"/><circle class="cls-1" cx="19.49" cy="19.17" r="0.63"/><polygon class="cls-1" points="36.19 26.6 24.21 10.12 15.93 28.73 36.19 26.6"/><circle class="cls-1" cx="19.46" cy="19.23" r="0.63"/><polygon class="cls-1" points="35.29 28.37 25.1 10.72 14.92 28.37 35.29 28.37"/><circle class="cls-1" cx="19.42" cy="19.28" r="0.63"/><polygon class="cls-1" points="34.21 30.03 25.92 11.42 13.95 27.9 34.21 30.03"/><circle class="cls-1" cx="19.38" cy="19.33" r="0.63"/><polygon class="cls-1" points="32.96 31.56 26.67 12.19 13.04 27.33 32.96 31.56"/><circle class="cls-1" cx="19.33" cy="19.38" r="0.63"/><polygon class="cls-1" points="31.56 32.96 27.33 13.04 12.19 26.67 31.56 32.96"/><circle class="cls-1" cx="19.28" cy="19.42" r="0.63"/><polygon class="cls-1" points="30.03 34.21 27.9 13.95 11.42 25.92 30.03 34.21"/><circle class="cls-1" cx="19.23" cy="19.46" r="0.63"/><polygon class="cls-1" points="28.37 35.29 28.37 14.92 10.72 25.1 28.37 35.29"/><circle class="cls-1" cx="19.17" cy="19.49" r="0.63"/><polygon class="cls-1" points="26.6 36.19 28.73 15.93 10.12 24.21 26.6 36.19"/><circle class="cls-1" cx="19.11" cy="19.51" r="0.63"/><polygon class="cls-1" points="24.75 36.9 28.99 16.97 9.62 23.26 24.75 36.9"/><circle class="cls-1" cx="19.04" cy="19.53" r="0.63"/><polygon class="cls-1" points="22.84 37.41 29.14 18.03 9.21 22.27 22.84 37.41"/><circle class="cls-1" cx="18.98" cy="19.54" r="0.63"/><polygon class="cls-1" points="20.89 37.72 29.17 19.11 8.91 21.24 20.89 37.72"/><circle class="cls-1" cx="18.91" cy="19.54" r="0.63"/><polygon class="cls-1" points="18.91 37.82 29.1 20.18 8.72 20.18 18.91 37.82"/><circle class="cls-1" cx="18.84" cy="19.54" r="0.63"/><polygon class="cls-1" points="16.93 37.72 28.91 21.24 8.65 19.11 16.93 37.72"/><circle class="cls-1" cx="18.78" cy="19.53" r="0.63"/><polygon class="cls-1" points="14.98 37.41 28.61 22.27 8.68 18.03 14.98 37.41"/><circle class="cls-1" cx="18.71" cy="19.51" r="0.63"/><polygon class="cls-1" points="13.07 36.9 28.2 23.26 8.83 16.97 13.07 36.9"/><circle class="cls-1" cx="18.65" cy="19.49" r="0.63"/><polygon class="cls-1" points="11.22 36.19 27.7 24.21 9.09 15.93 11.22 36.19"/><circle class="cls-1" cx="18.59" cy="19.46" r="0.63"/><polygon class="cls-1" points="9.45 35.29 27.1 25.1 9.45 14.92 9.45 35.29"/><circle class="cls-1" cx="18.54" cy="19.42" r="0.63"/><polygon class="cls-1" points="7.79 34.21 26.4 25.92 9.92 13.95 7.79 34.21"/><circle class="cls-1" cx="18.49" cy="19.38" r="0.63"/><polygon class="cls-1" points="6.26 32.96 25.63 26.67 10.49 13.04 6.26 32.96"/><circle class="cls-1" cx="18.44" cy="19.33" r="0.63"/><polygon class="cls-1" points="4.86 31.56 24.78 27.33 11.15 12.19 4.86 31.56"/><circle class="cls-1" cx="18.4" cy="19.28" r="0.63"/><polygon class="cls-1" points="3.61 30.03 23.87 27.9 11.9 11.42 3.61 30.03"/><circle class="cls-1" cx="18.36" cy="19.23" r="0.63"/><polygon class="cls-1" points="2.53 28.37 22.9 28.37 12.72 10.72 2.53 28.37"/><circle class="cls-1" cx="18.33" cy="19.17" r="0.63"/><polygon class="cls-1" points="1.63 26.6 21.89 28.73 13.61 10.12 1.63 26.6"/><circle class="cls-1" cx="18.31" cy="19.11" r="0.63"/><polygon class="cls-1" points="0.93 24.75 20.85 28.99 14.56 9.62 0.93 24.75"/><circle class="cls-1" cx="18.29" cy="19.04" r="0.63"/><polygon class="cls-1" points="0.41 22.84 19.79 29.14 15.55 9.21 0.41 22.84"/><circle class="cls-1" cx="18.28" cy="18.98" r="0.63"/><polygon class="cls-1" points="0.1 20.89 18.71 29.17 16.58 8.91 0.1 20.89"/><circle class="cls-1" cx="18.28" cy="18.91" r="0.63"/><polygon class="cls-1" points="0 18.91 17.64 29.1 17.64 8.72 0 18.91"/><circle class="cls-1" cx="18.28" cy="18.84" r="0.63"/><polygon class="cls-1" points="0.1 16.93 16.58 28.91 18.71 8.65 0.1 16.93"/><circle class="cls-1" cx="18.29" cy="18.78" r="0.63"/><polygon class="cls-1" points="0.41 14.98 15.55 28.61 19.79 8.68 0.41 14.98"/><circle class="cls-1" cx="18.31" cy="18.71" r="0.63"/><polygon class="cls-1" points="0.93 13.07 14.56 28.21 20.85 8.83 0.93 13.07"/><circle class="cls-1" cx="18.33" cy="18.65" r="0.63"/><polygon class="cls-1" points="1.63 11.22 13.61 27.7 21.89 9.09 1.63 11.22"/><circle class="cls-1" cx="18.36" cy="18.59" r="0.63"/><polygon class="cls-1" points="2.53 9.46 12.72 27.1 22.9 9.46 2.53 9.46"/><circle class="cls-1" cx="18.4" cy="18.54" r="0.63"/><polygon class="cls-1" points="3.61 7.8 11.9 26.4 23.87 9.92 3.61 7.8"/><circle class="cls-1" cx="18.44" cy="18.49" r="0.63"/><polygon class="cls-1" points="4.86 6.26 11.15 25.63 24.78 10.49 4.86 6.26"/><circle class="cls-1" cx="18.49" cy="18.44" r="0.63"/><polygon class="cls-1" points="6.26 4.86 10.49 24.78 25.63 11.15 6.26 4.86"/><circle class="cls-1" cx="18.54" cy="18.4" r="0.63"/><polygon class="cls-1" points="7.79 3.61 9.92 23.87 26.4 11.9 7.79 3.61"/><circle class="cls-1" cx="18.59" cy="18.36" r="0.63"/><polygon class="cls-1" points="9.45 2.53 9.45 22.9 27.1 12.72 9.45 2.53"/><circle class="cls-1" cx="18.65" cy="18.33" r="0.63"/><polygon class="cls-1" points="11.22 1.63 9.09 21.89 27.7 13.61 11.22 1.63"/><circle class="cls-1" cx="18.71" cy="18.31" r="0.63"/><polygon class="cls-1" points="13.07 0.93 8.83 20.85 28.2 14.56 13.07 0.93"/><circle class="cls-1" cx="18.78" cy="18.29" r="0.63"/><polygon class="cls-1" points="14.98 0.41 8.68 19.79 28.61 15.55 14.98 0.41"/><circle class="cls-1" cx="18.84" cy="18.28" r="0.63"/><polygon class="cls-1" points="16.93 0.1 8.65 18.71 28.91 16.58 16.93 0.1"/><circle class="cls-1" cx="18.91" cy="18.28" r="0.63"/><polygon class="cls-1" points="18.91 0 8.72 17.64 29.1 17.64 18.91 0"/><text class="cls-2" transform="translate(6.13 25.59) rotate(-12.05)">NEW</text></svg>