<svg id="Layer_1" data-name="Layer 1" xmlns="http://www.w3.org/2000/svg" viewBox="0 0 411.71 222.74"><defs><style>.cls-1{fill:#e69e6c;}.cls-2{fill:#fffefe;}.cls-3{fill:#fefffe;}.cls-4{fill:#69b767;}.cls-5{fill:#cbe4cb;}.cls-6{fill:#e59b68;}.cls-7{fill:#aecabb;}.cls-8{fill:#227348;}.cls-9{fill:#4b3d33;}.cls-10{fill:#a3521b;}</style></defs><path class="cls-1" d="M2,84c.6-17.1,5.67-32.43,18.3-44.56a34.72,34.72,0,0,1,15.32-8.87c6.82-1.77,13.12-.62,18.45,4.08,4.2,3.7,5.11,8.62,3.75,13.84C56.66,53,53.93,56.17,49,57c-1.69.29-3.19.16-3.74-1.65A3.25,3.25,0,0,1,47,51.13c2-.93,3.41-2.26,3.7-4.57.65-5.14-3.46-8.64-8.77-7.47-4.79,1.06-8.33,4-11.49,7.53-8,9-11.71,19.75-13,31.43-1.07,9.36.3,18.25,6,26.15s16.27,12.07,24.79,9.17c5.86-2,10.18-6.1,13.81-10.93,2.43-3.24,4.56-6.69,6.89-10,1-1.46.93-2.9.64-4.56-1.88-10.76-1-21.46,1-32.1,1.42-7.51,3-15,5.81-22.12a16.33,16.33,0,0,1,3-4.88C83.59,24,90,25.19,92.44,31.13c2,5,1.19,10.11.57,15.16-1.36,11-5.81,20.84-11.83,30a6.34,6.34,0,0,0-1,4.52c.35,3.05.69,6.09,2.2,8.83,1.61,2.92,3.77,3.6,6.93,2.47,3.8-1.36,6.14-4.46,8.81-7.16.73-.74.24-1.72.11-2.63-1.06-7.33-.42-14.23,5.58-19.54a13.82,13.82,0,0,1,11.7-3.47c5.44.84,7.3,4.91,7,10.15-.44,6.72-3.54,11.76-10.16,14.15-1.75.63-1.15,1.5-.18,2.27,2,1.58,4.4,1.65,6.76,1.67,6.7.07,11.51-3.66,15.75-8.24,1.48-1.6.52-3.82.41-5.75-.28-4.81-.76-9.61.52-14.35a9.15,9.15,0,0,1,.37-1.32c.67-1.55,1.59-2.77,3.52-2.79s2.49,1.26,3.09,2.61c1.15,2.57,1.1,2.52,3.43,1.2,3.16-1.79,6.24-1.24,9.05.77,1.1.79,1.76,1,2.61-.18,4.12-5.5,12.86-4.59,17,1.61,3.73,5.53,3.91,11.74,3.43,18.09-.42,5.39-1.36,10.78-.29,16.2a6.46,6.46,0,0,0,1.34,3.12c1.32,1.53,2.79,2.13,4.62.93a2.93,2.93,0,0,1,4,.24c1.23,1.19.64,2.56,0,3.82-2.43,5.06-8,6.18-13.51,2.59-5.37-3.48-7.8-8.73-8.78-14.91-.86-5.43.72-10.61,1.24-15.9a24.13,24.13,0,0,0-.5-8.18c-.21-.86-.6-1.92-1.67-1.94s-1.2,1-1.55,1.76c-1.72,3.8-1.82,7.84-1.87,11.9,0,3.53-1.88,5.32-5,5.09a4.22,4.22,0,0,1-3.87-3.37c-.91-2.89-.43-5.93-.9-8.87a21.33,21.33,0,0,0-1-4.47c-.73-1.9-1.73-2.11-2.86-.46a14.12,14.12,0,0,0-2.74,7.67,135.89,135.89,0,0,0,.73,15.09,10.16,10.16,0,0,1-.82,5.15c-1.35,3.07-4.57,3.36-6.51.61a10.37,10.37,0,0,1-1.54-4.52c-.11-.72.18-1.78-.69-2s-1.23.77-1.76,1.29a25.91,25.91,0,0,1-19,7.68,15.18,15.18,0,0,1-10.51-3.86c-1.61-1.45-2.13-.9-3.23.5-5,6.4-11.4,9.82-19.76,8.36a9.56,9.56,0,0,1-5.48-2.66c-1.13-1.19-1.69-.86-2.22.48a64.51,64.51,0,0,1-8.09,14.34c-5.25,7.11-12,12.06-20.87,13.36a33,33,0,0,1-25.37-6.32C8.2,113.42,3,101.73,2,87.86,2,86.56,2,85.26,2,84ZM80.45,67.13c5.4-10.82,9.56-21.89,6.14-34.3A135.36,135.36,0,0,0,80.45,67.13Zm28.12,9.6c.48.69-1,2.7,1.26,2.48,3.63-.35,8-7,7.17-10.57-.34-1.6-1.11-2-2.62-1.38C110.85,68.57,108.68,72,108.57,76.73Z" transform="translate(-1.99 -15.43)"/><path class="cls-1" d="M280.77,26.8c-.16,3.58-.08,7.18-.56,10.75-.25,1.83.36,2.72,2.36,2.5a30.19,30.19,0,0,1,6.84.48c1.52.18,2.66.88,2.66,2.59,0,1.54-1,2.31-2.41,2.62a31.57,31.57,0,0,1-7.48.86c-1.82,0-2.4.65-2.44,2.4-.1,5.81-.16,11.62-.55,17.41a176.56,176.56,0,0,0-.2,21.08c.39,7.3,1,14.62,3.52,21.61a11.59,11.59,0,0,0,2.76,4.44c2.18,2.15,4.15,2.23,6.5.34,1.07-.86,1.59-1.73.88-3.15-1.06-2.09.31-3.47,1.75-4.7s2.76-.88,4.18.11a7.77,7.77,0,0,1,2.67,9.39c-3,7.59-12.41,14-21.72,7.85-4.4-2.89-7.1-7.27-8.9-12.21-2.12-5.87-2.9-12-3.56-18.14-.05-.57.19-1.39-.53-1.61s-1,.55-1.41,1c-4.75,5.35-11.67,6.17-16.82,2.21-3-2.33-3.9-5.57-4.2-9a53,53,0,0,1,.19-10.07A17.45,17.45,0,0,0,243.19,67c-1.12-2.75-3.53-3.67-5.92-2-3.7,2.64-6.21,5.94-5.6,11A111.89,111.89,0,0,1,233,92.63c-.11,4-3.45,6.11-6.72,4.45a3.43,3.43,0,0,1-1.89-2.18c-.28-1-.41-2.11-.74-3.12-.25-.77.17-1.93-.73-2.27s-1.55.74-2.2,1.31A25.16,25.16,0,0,1,201,97.28c-6.91-.67-11.35-4.81-14-11.07-3.34-8-1.95-17.71,3.49-22.91,3.45-3.29,7.52-5.17,12.51-4.23,4.26.81,6.36,3,6.89,7.35a15.45,15.45,0,0,1-9.62,16.76c-1.78.78-1.86,1.38-.35,2.59a6.69,6.69,0,0,0,3.42,1.15,17.09,17.09,0,0,0,13.42-3.07c5.48-4.08,5.53-4,5.51-10.82a72.33,72.33,0,0,1,.58-11.67c.48-3,1.46-4,4-4,2.14,0,3,1.27,3.28,3.11.24,1.59.75,1.75,2,.73,9.3-7.47,18-1.42,20.41,7.43a40,40,0,0,1,1,12.06,25.92,25.92,0,0,0,.06,4.58c.41,2.81,2.1,3.57,4.61,2.26,2.29-1.2,3.8-3.24,5.51-5.09a10.43,10.43,0,0,0,2.9-7.85C266.42,66,267.35,57.5,268,49c.18-2.32-.6-3-2.76-2.74a33.41,33.41,0,0,1-4.36,0c-1.81,0-2.94-.92-2.94-2.79s1-2.55,2.79-2.61c1.91-.06,3.81-.42,5.71-.34,2.19.08,2.62-1,2.87-2.89q1.23-9.2,2.79-18.34c.54-3.14,2.64-4.35,5.73-3.55a3.45,3.45,0,0,1,3,3.55C280.75,21.75,280.77,24.27,280.77,26.8ZM196.22,76.4c.2.74-.49,1.89.54,2.4s1.9-.31,2.7-.86a12.19,12.19,0,0,0,5.1-7.1,4.52,4.52,0,0,0,0-2.7c-.43-1.29-1.07-1.86-2.56-1.22C198.48,68.42,196.27,71.89,196.22,76.4Z" transform="translate(-1.99 -15.43)"/><path class="cls-1" d="M312.08,72.74a50.31,50.31,0,0,1,.78-12.55c.43-2,1.25-3.22,3.44-3.22a3.1,3.1,0,0,1,3.49,3.12c.22,2.11,1.15,1.37,2.24.6,6.27-4.41,11.82-4.2,16.49.64a15.6,15.6,0,0,1,4.12,8.53,39.4,39.4,0,0,1,.58,11.62,10.88,10.88,0,0,0,.2,3.64c.53,2.5,2.11,3.44,4.3,2.27a18.88,18.88,0,0,0,6.1-5.8c.55-.75.24-1.6.18-2.44-.45-7,.7-13.49,6.85-18a13.55,13.55,0,0,1,11.71-2.49,7.57,7.57,0,0,1,5.82,6.35c1.13,8.24-3,15.54-10.1,17.74-1.34.41-1.43,1-.46,1.83A6.77,6.77,0,0,0,371,86.32c7.24,1.53,13-1.28,18.08-6.07.95-.89,1.85-1.84,2.79-2.73a2.43,2.43,0,0,1,3.33-.26,2.35,2.35,0,0,1,1,3.19c-3.83,8.34-10,14-19.16,15.83-4.61.93-9.27,1.13-13.6-1.36a16.27,16.27,0,0,1-4.6-3.73c-1.73-2.12-1.72-2.13-3.27,0-4.21,5.84-11.88,7.26-17.4,3.2-3.82-2.83-4.33-7-4.43-11.28-.08-3.05.19-6.11.3-9.16a17.56,17.56,0,0,0-1-7.22,4,4,0,0,0-6.55-1.83c-4.3,3.2-5.71,7.44-4.86,12.7a80,80,0,0,1,.95,15.07,4.33,4.33,0,0,1-3.94,4.52c-2.58.26-4.09-.85-4.79-3.54-.12-.45-.23-.89-.33-1.34-.29-1.3-.89-1.49-1.86-.56a28.85,28.85,0,0,1-2.7,2.49c-7.84,5.88-16.47,1.14-19.46-6.18a19.12,19.12,0,0,1-1.07-10.35c.68-4.44.7-9,1.94-13.35a4.24,4.24,0,0,1,5-3.35c2.1.3,3.09,1.7,3.24,4.27.3,5.3-.83,10.5-.89,15.78a12.48,12.48,0,0,0,1.12,5.1c1.05,2.44,3.4,3.11,5.7,1.79,2.85-1.63,5-4,7.09-6.44a3.17,3.17,0,0,0,.51-2.39C312.07,77,312.08,74.88,312.08,72.74Zm52.71,3c.15.78-.45,2,.52,2.6s1.92-.36,2.68-.9c3.21-2.28,5.4-5.16,5.09-9.39-.13-1.8-.87-2.24-2.56-1.6C367.2,67.69,364.92,71.24,364.79,75.72Z" transform="translate(-1.99 -15.43)"/><path class="cls-1" d="M291.33,51c.1-3,1.73-4.37,5-4.27,2.82.08,4.19,1.71,4.12,4.87a4.41,4.41,0,0,1-4.62,4.59C293,56.19,291.24,54.16,291.33,51Z" transform="translate(-1.99 -15.43)"/><path class="cls-2" d="M80.45,67.13a135.36,135.36,0,0,1,6.14-34.3C90,45.24,85.85,56.31,80.45,67.13Z" transform="translate(-1.99 -15.43)"/><path class="cls-2" d="M108.57,76.73c.11-4.76,2.28-8.16,5.81-9.47,1.51-.57,2.28-.22,2.62,1.38.78,3.61-3.54,10.22-7.17,10.57C107.61,79.43,109.05,77.42,108.57,76.73Z" transform="translate(-1.99 -15.43)"/><path class="cls-2" d="M196.22,76.4c.05-4.51,2.26-8,5.78-9.48,1.49-.64,2.13-.07,2.56,1.22a4.52,4.52,0,0,1,0,2.7,12.19,12.19,0,0,1-5.1,7.1c-.8.55-1.68,1.37-2.7.86S196.42,77.14,196.22,76.4Z" transform="translate(-1.99 -15.43)"/><path class="cls-2" d="M364.79,75.72c.13-4.48,2.41-8,5.73-9.29,1.69-.64,2.43-.2,2.56,1.6.31,4.23-1.88,7.11-5.09,9.39-.76.54-1.74,1.43-2.68.9S364.94,76.5,364.79,75.72Z" transform="translate(-1.99 -15.43)"/><path class="cls-3" d="M110.79,124.62q73.35,0,146.69-.06c1.92,0,2.31.38,2.3,2.3q-.11,54.51,0,109c0,1.93-.37,2.31-2.3,2.3q-72.23-.1-144.44,0c-1.92,0-2.3-.37-2.3-2.3Q110.85,180.25,110.79,124.62Zm95.48,8.29a9.57,9.57,0,0,0-2.87,2.9l-.42.63a30.07,30.07,0,0,0-2.42,6.65c-.63.26-1.18.55-.31,1.2l-.3,1.59c-.58.25-1.14.51-.4,1.21l-.18,1c-.64.26-1,.61-.33,1.22l-.69,5c-.79.28-1.18.62-.21,1.2a76.38,76.38,0,0,0-.11,15.71c-.89.7-.36,1,.36,1.18,1.82,6.73,5.34,9.24,12.43,8.87.68.84,1,.36,1.21-.34a11.59,11.59,0,0,0,5.47-3.2c1.4-1.47,2.61-2.13,4.8-1.44a8.6,8.6,0,0,0,6.77-.76c1.13-.62,2-.72,3,.33a6.73,6.73,0,0,0,6.35,2.07c.75.82,1,.24,1.17-.45,4.16-2.12,6.46-5.79,8.27-9.89a2.4,2.4,0,0,0-1-3.16,2.17,2.17,0,0,0-3.05.3c-.91.93-1.64,2-2.49,3-1.14,1.35-1.94,4-4.07,3s-1.2-3.46-1-5.38a7.22,7.22,0,0,1,.24-1.1q1-4.36,2.06-8.72c.3-1.3.15-2.43-1.13-3.15a2.22,2.22,0,0,0-3,.57c-1.14,1.46-2.17,1.09-3.61.43a11.19,11.19,0,0,0-13.1,2.59c-3.41,3.51-3.91,7.76-2.9,12.25.6,2.71-1.49,3.41-3,4.45a2.53,2.53,0,0,1-3.56-.38c-1.35-1.61-1.63-6.6-.45-8.5a47.49,47.49,0,0,0,5.37-11.67c1.16-.24,1.35-.8.55-1.68l.17-1.05c.66-.24,1.21-.51.37-1.2l.27-3.84c1.86-2.82,1.13-8.64-1.37-11S208.64,130.92,206.27,132.91Zm-52.77,55.2c3.59,2,9.3-.43,10.21-6.13,1.47-1.54,1.52-3.06,0-4.58l-.49-2.5.35-1.51c4.43-2.11,4.43-2.11,4.71,2.92,0,.18,0,.37,0,.55-1,.76-.78,1.33.3,1.75l1.4,6.68c-1,.86-.26,1,.47,1.07a17.32,17.32,0,0,0,4,6.34,10,10,0,0,0,16.7-4.12,5.41,5.41,0,0,0-1.87-6.29c-2.28-1.81-5-.76-5.43,2.12-.15,1,.09,2.24-1.23,2.51s-2.33-.87-2.78-1.91a25.1,25.1,0,0,1-1.52-5.34c-1.71-9.38-.66-18.85-.77-28.28,0-3.29,1-4.95,4.61-4.63a2.79,2.79,0,0,0,3.05-2.95c0-1.71-1.5-2.18-3-2.41a5.92,5.92,0,0,0-1.66-.19c-2.29.26-2.61-.92-2.45-2.86.24-2.89.33-5.79.31-8.68,0-2.3-1.56-3.34-3.66-3.46a3.17,3.17,0,0,0-3.59,2.82,81.64,81.64,0,0,0-1.54,9.39c-.17,2.43-1.16,3.38-3.42,3.32-1.83,0-3.58.22-3.63,2.47s1.73,2.94,3.67,2.8,2.28.76,2.15,2.49c-.27,3.64-.36,7.29-.5,10.93-.2,5-.26,4.8-4.92,6.72-2.8,1.15-4.14.51-4.69-2.33,1.28-.46,2.72.34,4-.73a7.07,7.07,0,0,0,1.35-8.4c-1.49-2.61-5.71-4.33-8.14-3.33-5,2-6.5,4.4-6.35,9.87a7.69,7.69,0,0,1-7,7.72c-1.08.09-2.61.6-3.17-.37-.76-1.32,1.06-1.71,1.72-2.45,3.53-4,3.85-10.06.55-12.9-3.09-2.68-8.8-1.49-12.21,2.53-3.56,4.21-3.72,11.59-.36,16.49s9.11,6.55,15.5,4.19a15,15,0,0,0,4.82-2.82l1.62.65-.37.57c-.75.28-1.46.59-.8,1.58-1,4-.41,7.44,2.91,10.15C152.59,188.09,153.05,188.08,153.5,188.11Zm75.48-37c1-.18,2.51.49,2.94-1.16a1.54,1.54,0,0,0-1.33-1.84c-2.91-.73-5.33-2-6.09-5.24a1.51,1.51,0,0,0-1.88-1.27c-1.14.3-1.18,1.28-1.21,2.25C221.32,147.48,225,151.05,229,151.13Z" transform="translate(-1.99 -15.43)"/><path class="cls-4" d="M149,174.62a15,15,0,0,1-4.82,2.82c-6.39,2.36-12.06.82-15.5-4.19s-3.2-12.28.36-16.49c3.41-4,9.12-5.21,12.21-2.53,3.3,2.84,3,8.89-.55,12.9-.66.74-2.48,1.13-1.72,2.45.56,1,2.09.46,3.17.37a7.69,7.69,0,0,0,7-7.72c-.15-5.47,1.36-7.82,6.35-9.87,2.43-1,6.65.72,8.14,3.33a7.07,7.07,0,0,1-1.35,8.4c-1.27,1.07-2.71.27-4,.73.55,2.84,1.89,3.48,4.69,2.33,4.66-1.92,4.72-1.75,4.92-6.72.14-3.64.23-7.29.5-10.93.13-1.73-.16-2.63-2.15-2.49s-3.73-.43-3.67-2.8,1.8-2.51,3.63-2.47c2.26.06,3.25-.89,3.42-3.32a81.64,81.64,0,0,1,1.54-9.39,3.17,3.17,0,0,1,3.59-2.82c2.1.12,3.64,1.16,3.66,3.46,0,2.89-.07,5.79-.31,8.68-.16,1.94.16,3.12,2.45,2.86a5.92,5.92,0,0,1,1.66.19c1.46.23,2.94.7,3,2.41a2.79,2.79,0,0,1-3.05,2.95c-3.62-.32-4.65,1.34-4.61,4.63.11,9.43-.94,18.9.77,28.28a25.1,25.1,0,0,0,1.52,5.34c.45,1,1.32,2.22,2.78,1.91s1.08-1.5,1.23-2.51c.44-2.88,3.15-3.93,5.43-2.12a5.41,5.41,0,0,1,1.87,6.29,10,10,0,0,1-16.7,4.12,17.32,17.32,0,0,1-4-6.34,1,1,0,0,0-.47-1.07c-.47-2.23-.94-4.45-1.4-6.68a1.6,1.6,0,0,0-.3-1.75c0-.18,0-.37,0-.55-.28-5-.28-5-4.71-2.92-1.15.26-1.07.81-.35,1.51.17.83.33,1.67.49,2.5,0,1.53,0,3,0,4.58-.91,5.7-6.62,8.16-10.21,6.13-.16-.62-.7-.47-1.13-.54-3.32-2.71-4-6.19-2.91-10.15.68-.32.77-.93.8-1.58l.37-.57a3.27,3.27,0,0,0,1.82-2.8.62.62,0,0,0-.77-.58,4.25,4.25,0,0,0-2.59,2.2C149,174.22,149,174.44,149,174.62Zm-14.74-6.19c4.82-1.17,7.49-4.5,6.89-8.59a3.81,3.81,0,0,0-2.59-4.64c-2.43-.87-7,.87-8.43,3.15-2.68,4.22-2.81,8.82.52,13.8,2.47,3.69,6.25,4.87,11.43,3.64a15.07,15.07,0,0,0,7.82-5.14c.55-.63,1.34-1.46.66-2.2-.85-.92-1.44.27-2,.74a12,12,0,0,1-11.47,2.75C135.48,171.5,133.69,170.83,134.27,168.43Zm23.85-12.2c.13.23.2.59.38.67,3.07,1.22,3.27,2,.86,4.25-.53.49-.75.76-.22,1.28s.89,1,1.84.4c2.39-1.57,2.67-3.78.66-6.62a2.16,2.16,0,0,0-1.47-1.2c-.06-.3-.22-.46-.54-.36-2.46-.57-4.86-.92-6.6,1.55-.85.25-1.29.74-1,1.67a10,10,0,0,0,.41,8.71c2.41,4.32,2.85,7.95-1.09,11.72-1.5,1.45-.95,4,.33,5.67,1.06,1.41,2.1,3.25,4.42,2.91a6.65,6.65,0,0,0,5.64-6.35,13,13,0,0,0-1.1-6c-.6-1.37-.09-1.95,1-2.68,1.82-1.26,4.33-1.09,5.84-2.92.6-.3.75-.57-.05-.78l-1,.1c-.43-.18-.82-.21-1.11.26l-.56.18c-.44-.06-1-.33-1.1.4l-2.29.88c-.29-.23-.44,0-.57.2a2.29,2.29,0,0,1-3-1.65c-.57-1.67-1.38-3.25-1.85-4.94C155,160,155.72,157.76,158.12,156.23ZM173,132c-1.1.29-.94,1-.53,1.73l0,1.12c-1.64.89-.8,2.19-.56,3.39a8.33,8.33,0,0,0-.29,1.88c.25,2.74-.89,3.83-3.65,3.59-1-.09-2.49-.58-3,1.07,0,.29.13.43.41.18l5.16.36v1.27l.31,1.76c-1.82,1.4-.68,3.31-.87,5,0,1.31.07,2.61.06,3.91-.06,7.39-.4,14.78.89,22.12.93,5.27,2.23,10.31,7.15,13.39a5.94,5.94,0,0,0,6.87,0c2.22-1.48,4.28-3.13,4.21-6.17,0-1.32-.51-2.6-1.92-2.71-1.62-.13-1,1.32-1.19,2.25a3.77,3.77,0,0,1-5.85,2.5,8.37,8.37,0,0,1-3.25-5.07c-3.21-12.18-1.48-24.52-1.29-36.81,0-1.44.89-1.66,2-1.68a10,10,0,0,0,5-.87,3.75,3.75,0,0,0-2.82-.65c-4-.12-4-.11-3.85-4.15.11-2.9.17-5.8.23-8.7,0-.86-.1-1.82-1.15-2a2,2,0,0,0-2.23,1.69A4.47,4.47,0,0,0,173,132Z" transform="translate(-1.99 -15.43)"/><path class="cls-4" d="M213.06,152.14a47.49,47.49,0,0,1-5.37,11.67c-1.18,1.9-.9,6.89.45,8.5a2.53,2.53,0,0,0,3.56.38c1.49-1,3.58-1.74,3-4.45-1-4.49-.51-8.74,2.9-12.25a11.19,11.19,0,0,1,13.1-2.59c1.44.66,2.47,1,3.61-.43a2.22,2.22,0,0,1,3-.57c1.28.72,1.43,1.85,1.13,3.15q-1,4.35-2.06,8.72a7.22,7.22,0,0,0-.24,1.1c-.15,1.92-1,4.45,1,5.38s2.93-1.63,4.07-3c.85-1,1.58-2.09,2.49-3a2.17,2.17,0,0,1,3.05-.3,2.4,2.4,0,0,1,1,3.16c-1.81,4.1-4.11,7.77-8.27,9.89a1,1,0,0,0-1.17.45,6.73,6.73,0,0,1-6.35-2.07c-.92-1-1.82-.95-3-.33a8.6,8.6,0,0,1-6.77.76c-2.19-.69-3.4,0-4.8,1.44A11.59,11.59,0,0,1,212,181a1,1,0,0,0-1.21.34c-7.09.37-10.61-2.14-12.43-8.87a.94.94,0,0,0-.36-1.18,76.38,76.38,0,0,1,.11-15.71,1,1,0,0,0,.21-1.2l.69-5a.85.85,0,0,0,.33-1.22l.18-1c.61-.24.52-.72.4-1.21l.3-1.59c.62-.27.4-.75.31-1.2a30.07,30.07,0,0,1,2.42-6.65c.35-.07.53-.26.42-.63a9.57,9.57,0,0,1,2.87-2.9c6.55,0,8,1.63,7.95,8.43,0,1,.13,2,.2,3l-.27,3.84a1,1,0,0,0-.37,1.2l-.17,1.05A1.71,1.71,0,0,0,213.06,152.14Zm27.51,20.18c-.44.05-1-.07-1.11.59-3.14,1.24-5.5-.73-5.52-4,0-4,.94-7.76,1.54-11.62.08-.43.26-1-.33-1.11-.77-.15-1.07.44-1.21,1.11-.26.51-.72.49-1.19.44a1.93,1.93,0,0,0-1.51-1.22c-4.18-2.93-8.73-2.52-12.12,1.09s-3.62,10.44-.43,14.26c2.79,3.36,6.71,3.6,11.28.52,1.28-.86,1.92-.77,2.59.55a4.86,4.86,0,0,0,3.56,2.89c.37.52.75.52,1.14,0a4.68,4.68,0,0,0,3.7-2.53,8.93,8.93,0,0,0,3.3-4.29c.39-.2.42-.75.19-.8a1.22,1.22,0,0,0-1.53.85Zm-28.08-29.16c0-.65,0-1.3.12-1.94a6.69,6.69,0,0,0-1.17-5.29c-2-2.32-4.62-2.42-6.73,1.36-2,3.52-2.44,7.45-3.14,11.33-1.4,7.73-2.94,15.44-1,23.3.84,3.47,2.52,6.36,6.28,7.14,4,.84,7.29-.86,10.07-3.67a1.47,1.47,0,0,0,.12-2.22c-.73-.92-1.36-.67-2.12-.06a12.72,12.72,0,0,1-2.31,1.57c-2.64,1.33-5.61.79-6.59-1.57-1.28-3.07-2.34-6.33-.86-9.73,3.62-4.24,5.55-9.3,6.73-14.63C212.26,147,214.31,145.22,212.49,143.16Z" transform="translate(-1.99 -15.43)"/><path class="cls-4" d="M229,151.13c-4-.08-7.66-3.65-7.57-7.26,0-1,.07-2,1.21-2.25a1.51,1.51,0,0,1,1.88,1.27c.76,3.27,3.18,4.51,6.09,5.24a1.54,1.54,0,0,1,1.33,1.84C231.49,151.62,230,151,229,151.13Z" transform="translate(-1.99 -15.43)"/><path class="cls-5" d="M149,174.62c0-.18,0-.4.08-.53a4.25,4.25,0,0,1,2.59-2.2.62.62,0,0,1,.77.58,3.27,3.27,0,0,1-1.82,2.8Z" transform="translate(-1.99 -15.43)"/><path class="cls-5" d="M163.71,182c0-1.53,0-3,0-4.58C165.23,178.92,165.18,180.44,163.71,182Z" transform="translate(-1.99 -15.43)"/><path class="cls-5" d="M213.06,152.14a1.71,1.71,0,0,1,.55-1.68C214.41,151.34,214.22,151.9,213.06,152.14Z" transform="translate(-1.99 -15.43)"/><path class="cls-5" d="M168.28,176.86a1.6,1.6,0,0,1,.3,1.75C167.5,178.19,167.31,177.62,168.28,176.86Z" transform="translate(-1.99 -15.43)"/><path class="cls-5" d="M150.26,175.84c0,.65-.12,1.26-.8,1.58C148.8,176.43,149.51,176.12,150.26,175.84Z" transform="translate(-1.99 -15.43)"/><path class="cls-5" d="M198.35,154.33a1,1,0,0,1-.21,1.2C197.17,155,197.56,154.61,198.35,154.33Z" transform="translate(-1.99 -15.43)"/><path class="cls-5" d="M198,171.24a.94.94,0,0,1,.36,1.18C197.67,172.21,197.14,171.94,198,171.24Z" transform="translate(-1.99 -15.43)"/><path class="cls-5" d="M213.78,149.41a1,1,0,0,1,.37-1.2C215,148.9,214.44,149.17,213.78,149.41Z" transform="translate(-1.99 -15.43)"/><path class="cls-5" d="M199.37,148.12a.85.85,0,0,1-.33,1.22C198.39,148.73,198.73,148.38,199.37,148.12Z" transform="translate(-1.99 -15.43)"/><path class="cls-5" d="M200,145.88c.12.49.21,1-.4,1.21C198.81,146.39,199.37,146.13,200,145.88Z" transform="translate(-1.99 -15.43)"/><path class="cls-5" d="M163.18,174.9c-.72-.7-.8-1.25.35-1.51C163.41,173.89,163.3,174.39,163.18,174.9Z" transform="translate(-1.99 -15.43)"/><path class="cls-5" d="M200.56,143.09c.09.45.31.93-.31,1.2C199.38,143.64,199.93,143.35,200.56,143.09Z" transform="translate(-1.99 -15.43)"/><path class="cls-5" d="M238.37,178a1,1,0,0,1,1.17-.45C239.35,178.19,239.12,178.77,238.37,178Z" transform="translate(-1.99 -15.43)"/><path class="cls-5" d="M210.82,181.29A1,1,0,0,1,212,181C211.79,181.65,211.5,182.13,210.82,181.29Z" transform="translate(-1.99 -15.43)"/><path class="cls-5" d="M170,185.29a1,1,0,0,1,.47,1.07C169.72,186.25,169,186.15,170,185.29Z" transform="translate(-1.99 -15.43)"/><path class="cls-5" d="M152.37,187.57c.43.07,1-.08,1.13.54C153.05,188.08,152.59,188.09,152.37,187.57Z" transform="translate(-1.99 -15.43)"/><path class="cls-5" d="M203.4,135.81c.11.37-.07.56-.42.63Z" transform="translate(-1.99 -15.43)"/><path class="cls-3" d="M164.94,144.78c.54-1.65,2-1.16,3-1.07,2.76.24,3.9-.85,3.65-3.59a8.33,8.33,0,0,1,.29-1.88c1.1-1,.81-2.19.56-3.39,0-.37,0-.74-.05-1.12A1.06,1.06,0,0,0,173,132a4.47,4.47,0,0,1-.14-1.64,2,2,0,0,1,2.23-1.69c1,.16,1.16,1.12,1.15,2-.06,2.9-.12,5.8-.23,8.7-.14,4-.16,4,3.85,4.15a3.75,3.75,0,0,1,2.82.65,10,10,0,0,1-5,.87c-1.14,0-2,.24-2,1.68-.19,12.29-1.92,24.63,1.29,36.81a8.37,8.37,0,0,0,3.25,5.07,3.77,3.77,0,0,0,5.85-2.5c.15-.93-.43-2.38,1.19-2.25,1.41.11,1.89,1.39,1.92,2.71.07,3-2,4.69-4.21,6.17a5.94,5.94,0,0,1-6.87,0c-4.92-3.08-6.22-8.12-7.15-13.39-1.29-7.34-1-14.73-.89-22.12,0-1.3,0-2.6-.06-3.91,2-1.37.83-3.28.87-5l-.31-1.76c.41-.11.9-.23.77-.77-.06-.21-.5-.33-.77-.5l-5.16-.36A.54.54,0,0,0,164.94,144.78Z" transform="translate(-1.99 -15.43)"/><path class="cls-3" d="M164.8,168.67l.56-.18,1.11-.26,1-.1.05.78c-1.51,1.83-4,1.66-5.84,2.92-1.07.73-1.58,1.31-1,2.68a13,13,0,0,1,1.1,6,6.65,6.65,0,0,1-5.64,6.35c-2.32.34-3.36-1.5-4.42-2.91-1.28-1.7-1.83-4.22-.33-5.67,3.94-3.77,3.5-7.4,1.09-11.72a10,10,0,0,1-.41-8.71c.87-.24,1-.91,1-1.67,1.74-2.47,4.14-2.12,6.6-1.55l.54.36a2.13,2.13,0,0,1,1.46,1.2c-1.17,0-2.34-.53-3.51,0-2.4,1.53-3.11,3.78-2.12,7.33.47,1.69,1.28,3.27,1.85,4.94a2.29,2.29,0,0,0,3,1.65l.57-.2,2.29-.88Zm-6.48,11.94c0-1.76-1.62-5.63-2.07-5.33a6,6,0,0,0-2.76,4.93c0,1.63.42,3,2.45,3S158.17,181.88,158.32,180.61Z" transform="translate(-1.99 -15.43)"/><path class="cls-3" d="M134.27,168.43c-.58,2.4,1.21,3.07,2.85,3.51a12,12,0,0,0,11.47-2.75c.54-.47,1.13-1.66,2-.74.68.74-.11,1.57-.66,2.2a15.07,15.07,0,0,1-7.82,5.14c-5.18,1.23-9,.05-11.43-3.64-3.33-5-3.2-9.58-.52-13.8,1.44-2.28,6-4,8.43-3.15a3.81,3.81,0,0,1,2.59,4.64l-.85.14c-.17-2.4-1.58-2.72-3.49-2-3.23,1.24-4.66,5.82-3,9.57A.74.74,0,0,0,134.27,168.43Z" transform="translate(-1.99 -15.43)"/><path class="cls-5" d="M158.12,156.23c1.17-.55,2.34,0,3.51,0,2,2.84,1.74,5-.65,6.62-.95.62-1.33.09-1.84-.4s-.31-.79.22-1.28c2.41-2.21,2.21-3-.86-4.25C158.32,156.82,158.25,156.46,158.12,156.23Z" transform="translate(-1.99 -15.43)"/><path class="cls-5" d="M170.82,148.35c0,1.71,1.09,3.62-.87,5C170.14,151.66,169,149.75,170.82,148.35Z" transform="translate(-1.99 -15.43)"/><path class="cls-5" d="M172.47,134.85c.25,1.2.54,2.41-.56,3.39C171.67,137,170.83,135.74,172.47,134.85Z" transform="translate(-1.99 -15.43)"/><path class="cls-5" d="M173,132a1.06,1.06,0,0,1-.54,1.73C172,133,171.86,132.29,173,132Z" transform="translate(-1.99 -15.43)"/><path class="cls-5" d="M153,156.2c0,.76-.1,1.43-1,1.67C151.74,156.94,152.18,156.45,153,156.2Z" transform="translate(-1.99 -15.43)"/><path class="cls-5" d="M170.51,145.32c.27.17.71.29.77.5.13.54-.36.66-.77.77Z" transform="translate(-1.99 -15.43)"/><path class="cls-5" d="M166.47,168.23l-1.11.26C165.65,168,166,168.05,166.47,168.23Z" transform="translate(-1.99 -15.43)"/><path class="cls-5" d="M167.49,168.91l-.05-.78C168.24,168.34,168.09,168.61,167.49,168.91Z" transform="translate(-1.99 -15.43)"/><path class="cls-5" d="M164.8,168.67l-1.1.4C163.85,168.34,164.36,168.61,164.8,168.67Z" transform="translate(-1.99 -15.43)"/><path class="cls-5" d="M160.17,155l-.54-.36C160,154.55,160.11,154.71,160.17,155Z" transform="translate(-1.99 -15.43)"/><path class="cls-5" d="M161.41,170l-.57.2C161,169.91,161.12,169.72,161.41,170Z" transform="translate(-1.99 -15.43)"/><path class="cls-5" d="M164.94,144.78a.54.54,0,0,1,.41.18C165.07,145.21,165,145.07,164.94,144.78Z" transform="translate(-1.99 -15.43)"/><path class="cls-3" d="M205.14,163.38c-1.48,3.4-.42,6.66.86,9.73,1,2.36,3.95,2.9,6.59,1.57a12.72,12.72,0,0,0,2.31-1.57c.76-.61,1.39-.86,2.12.06a1.47,1.47,0,0,1-.12,2.22c-2.78,2.81-6.05,4.51-10.07,3.67-3.76-.78-5.44-3.67-6.28-7.14-1.92-7.86-.38-15.57,1-23.3.7-3.88,1.19-7.81,3.14-11.33,2.11-3.78,4.77-3.68,6.73-1.36a6.69,6.69,0,0,1,1.17,5.29c-.09.64-.08,1.29-.12,1.94l-1.07,0c-.06-1.25-.13-2.5-.19-3.75.15-1,.58-2-.75-2.52-3-.63-3.13,1.86-3.38,3.56-.7,4.84-2.14,9.56-2.27,14.49l-.22.54L204.2,161A1.73,1.73,0,0,0,205.14,163.38Z" transform="translate(-1.99 -15.43)"/><path class="cls-3" d="M241,173.28a4.68,4.68,0,0,1-3.7,2.53q-.56-.92-1.14,0a4.86,4.86,0,0,1-3.56-2.89c-.67-1.32-1.31-1.41-2.59-.55-4.57,3.08-8.49,2.84-11.28-.52-3.19-3.82-3-10.63.43-14.26s7.94-4,12.12-1.09c-.08.6-.17,1.19-.25,1.79-2.7-1.36-5.34-1.72-7.82.46S220.39,164,221,167c.8,3.66,4.42,4.79,7.39,2.48,3.22-2.52,4-6.07,4.2-9.89l.12-1.87c.47.05.93.07,1.19-.44h1.54c-.6,3.86-1.57,7.64-1.54,11.62,0,3.31,2.38,5.28,5.52,4l1.16,0A2.19,2.19,0,0,0,241,173.28Z" transform="translate(-1.99 -15.43)"/><path class="cls-3" d="M244.26,169a8.93,8.93,0,0,1-3.3,4.29,2.19,2.19,0,0,1-.34-.34c0-.21,0-.41-.05-.62.79-1.09,1.57-2.18,2.35-3.28Z" transform="translate(-1.99 -15.43)"/><path class="cls-4" d="M158.32,180.61c-.15,1.27-.49,2.64-2.38,2.64s-2.49-1.41-2.45-3a6,6,0,0,1,2.76-4.93C156.7,175,158.32,178.85,158.32,180.61Z" transform="translate(-1.99 -15.43)"/><path class="cls-4" d="M140.31,160c-.36,4.1-2.74,6.45-6.54,7.59-1.61-3.75-.18-8.33,3-9.57C138.73,157.26,140.14,157.58,140.31,160Zm-2,1.37c.06-.73,0-1.43-.75-1.32-1.82.28-2.06,1.89-2.47,3.29-.17.59,0,1.33.67,1.18C137.44,164.12,137.92,162.64,138.34,161.35Z" transform="translate(-1.99 -15.43)"/><path class="cls-4" d="M211.51,144.82a3.38,3.38,0,0,0-1.2,2.64c-.06,4.68-2.27,8.63-4.38,12.62-.38.72-.82,1.23-1.73.94.14-1.85.28-3.7.41-5.56.34-.07.53-.21.22-.54.13-4.93,1.57-9.65,2.27-14.49.25-1.7.36-4.19,3.38-3.56-.14.95-.53,2,.75,2.52.06,1.25.13,2.5.19,3.75l0,1.14ZM209.17,142c-.74,2.89-2.4,5.6-1.64,8.76A12.2,12.2,0,0,0,209.17,142Z" transform="translate(-1.99 -15.43)"/><path class="cls-5" d="M211.23,139.39c-1.28-.53-.89-1.57-.75-2.52C211.81,137.39,211.38,138.43,211.23,139.39Z" transform="translate(-1.99 -15.43)"/><path class="cls-5" d="M204.83,154.92c.31.33.12.47-.22.54Z" transform="translate(-1.99 -15.43)"/><path class="cls-4" d="M231,158.26c.29.75,1,.94,1.64,1.3-.18,3.82-1,7.37-4.2,9.89-3,2.31-6.59,1.18-7.39-2.48-.65-3-.44-6,2.13-8.25S228.29,156.9,231,158.26Zm-3.46,1.12a4.9,4.9,0,0,0-4.76,5.11c0,1.87.38,3.71,2.69,3.9,2,.17,4.73-3.77,4.81-6.82C230.32,159.49,228.53,159.79,227.53,159.38Z" transform="translate(-1.99 -15.43)"/><path class="cls-3" d="M211.51,144.82l-.12-.54a2.17,2.17,0,0,1,.22.34S211.55,144.76,211.51,144.82Z" transform="translate(-1.99 -15.43)"/><path class="cls-5" d="M138.34,161.35c-.42,1.29-.9,2.77-2.55,3.15-.67.15-.84-.59-.67-1.18.41-1.4.65-3,2.47-3.29C138.32,159.92,138.4,160.62,138.34,161.35Z" transform="translate(-1.99 -15.43)"/><path class="cls-5" d="M207.53,150.74c-.76-3.16.9-5.87,1.64-8.76" transform="translate(-1.99 -15.43)"/><path class="cls-3" d="M227.53,159.38c1,.41,2.79.11,2.74,2.19-.08,3.05-2.78,7-4.81,6.82-2.31-.19-2.71-2-2.69-3.9A4.9,4.9,0,0,1,227.53,159.38Z" transform="translate(-1.99 -15.43)"/><path class="cls-2" d="M412.32,100.52c1.16,0,1.39.22,1.39,1.38q-.06,60.38,0,120.75c0,1.15-.23,1.38-1.38,1.38q-62.07-.06-124.13,0c-1.15,0-1.38-.23-1.38-1.38m87.47-76.86a3.69,3.69,0,0,1,.91-.41,12.85,12.85,0,0,0,5.49-2.63c3.41-2.48,5.33-6.13,7.44-9.58,2-3.21,2.72-7,4.62-10.3.88-1.52-.77-3.71-2.62-3.72-3.54,0-7.08.13-10.61,0-5.44-.23-10.24,1.77-15,3.9-3.28,1.45-3.57,2.21-3.42-2.06a20.6,20.6,0,0,0-1-7.72c-1.58-4.26-5.31-6.12-9.68-6.52a11.61,11.61,0,0,1-6.9-2.54,3.48,3.48,0,0,0-3.76-.73,4,4,0,0,0-2.21,3.54,9.1,9.1,0,0,1-.17,2.17,16.24,16.24,0,0,0-.32,8.94,39.27,39.27,0,0,0,6.68,15.37c.77,1,.51,1.44-.58,1.71-5.9-.42-11.79-.61-17.61.66a52.79,52.79,0,0,0-16.38,6.71,25.86,25.86,0,0,0-10.9,13.62c-1.1,3-1.38,6.11-2.22,9.13a45.75,45.75,0,0,0-2,14.93,29.45,29.45,0,0,0,7.33,18.69,43.74,43.74,0,0,0,9.85,7.77,66.45,66.45,0,0,0,26.4,9.4,56.29,56.29,0,0,0,14.74.52c5.06-.64,9.91-1.72,14.27-4.46,7.25-4.54,10.83-11.57,13-19.5,1.51-5.46,1.72-11.05,1.75-16.67a65.2,65.2,0,0,0-2.47-19.6A57.93,57.93,0,0,0,374.29,145.79Z" transform="translate(-1.99 -15.43)"/><path class="cls-6" d="M374.29,145.79a57.93,57.93,0,0,1,4.61,10.59,65.2,65.2,0,0,1,2.47,19.6c0,5.62-.24,11.21-1.75,16.67-2.18,7.93-5.76,15-13,19.5-4.36,2.74-9.21,3.82-14.27,4.46a56.29,56.29,0,0,1-14.74-.52,66.45,66.45,0,0,1-26.4-9.4,43.74,43.74,0,0,1-9.85-7.77A29.45,29.45,0,0,1,294,180.23a45.75,45.75,0,0,1,2-14.93c.84-3,1.12-6.16,2.22-9.13a25.86,25.86,0,0,1,10.9-13.62,52.79,52.79,0,0,1,16.38-6.71c5.82-1.27,11.71-1.08,17.61-.66.85.85,1.51-.27,2.29-.24,1.74,1.93,3.58,4,6.25,4.2a13.68,13.68,0,0,1,6.77,1.79c2,1.28,4.65,1.25,6.74,2.38a15.24,15.24,0,0,0,8.55,1.78C373.83,145.4,374,145.69,374.29,145.79ZM367,170.31c0-.61,0-1.23,0-1.85.15-6.66-4.26-8.75-9.6-8.61a12.27,12.27,0,0,0-9.73,5.16c-3.12,4.17-4.14,8.27-1,12.34,3.43,4.5,9.63,5.23,14.12,2.93C364.71,178.26,368.42,175.83,367,170.31ZM306.3,181.57c-1,0-1.7-.17-2.08.43-1.05,1.65-1,3.71-2,5.4,0,0,0,.11.06.15a3.07,3.07,0,0,1,.53,3.25c-.09.25.13.64.29.92a11,11,0,0,0,3.24,3.54c1.2.86,2,.56,2.63-.48a2,2,0,0,1,2.64-1c1.42.35,2.59-.06,2.82-1.75.08-.66.47-.82,1-.87a16.81,16.81,0,0,1,2.33-.21,2.14,2.14,0,0,0,2.29-1.34,2,2,0,0,0-.81-2.37A26.08,26.08,0,0,0,306.3,181.57ZM370,179.85c-.64.12-1.35.29-2.07.37-4.44.53-8.09,2.75-11.56,5.34a2,2,0,0,0,1.25,3.63c.78-.05,1.57,0,2.36,0s1.07.16,1.23,1c.29,1.53,1.44,2.11,3,1.85.81-.14,1.75-.69,2.35.48.78,1.54,1.77,1.86,3.18.85s2.76-2.14,3-3.7,0-3.11.69-4.6c.08-.18-.23-.64-.48-.83a2.36,2.36,0,0,1-.83-2.24C372.18,180.59,371.38,180,370,179.85ZM324.7,161.36a13.51,13.51,0,0,0-12.85,9,9.18,9.18,0,0,0,4.49,11.51c5,2.76,9.51,1.43,13.8-1.54,1.89-1.32,3.83-3,3.73-5.45a26.78,26.78,0,0,0-.43-6c-.31-1.11.07-2.26-.69-3.39A8.74,8.74,0,0,0,324.7,161.36Z" transform="translate(-1.99 -15.43)"/><path class="cls-7" d="M374.29,145.79c-.34-.1-.46-.39-.55-.7,1.37-.91,3.09-.93,4.51-1.77,4.51-2.65,7-7,9.51-11.29,1.5-2.62,1.88-5.75,3.64-8.26a2.29,2.29,0,0,0,.29-2.8,2.43,2.43,0,0,0-2.72-.85,24.13,24.13,0,0,1-6.52.06,28.63,28.63,0,0,0-10.81,1,63.52,63.52,0,0,0-8.38,3.43c-1.85.86-2.58.6-2.94-1.45a61.57,61.57,0,0,1-.5-6.53,8.87,8.87,0,0,0-2.34-5.77,10.23,10.23,0,0,0-6-3c-3.17-.57-6.4-.93-9-3.26-1.53-1.37-2.93-.86-3.54,1.18a26.67,26.67,0,0,0-1,11.14,39.08,39.08,0,0,0,5.7,14.93c.63,1,1.66,1.82,1.86,3.1-.78,0-1.44,1.09-2.29.24,1.09-.27,1.35-.7.58-1.71A39.27,39.27,0,0,1,337,118.1a16.24,16.24,0,0,1,.32-8.94,9.1,9.1,0,0,0,.17-2.17,4,4,0,0,1,2.21-3.54,3.48,3.48,0,0,1,3.76.73,11.61,11.61,0,0,0,6.9,2.54c4.37.4,8.1,2.26,9.68,6.52a20.6,20.6,0,0,1,1,7.72c-.15,4.27.14,3.51,3.42,2.06,4.8-2.13,9.6-4.13,15-3.9,3.53.16,7.07,0,10.61,0,1.85,0,3.5,2.2,2.62,3.72-1.9,3.29-2.65,7.09-4.62,10.3-2.11,3.45-4,7.1-7.44,9.58a12.85,12.85,0,0,1-5.49,2.63A3.69,3.69,0,0,0,374.29,145.79Z" transform="translate(-1.99 -15.43)"/><path class="cls-8" d="M345.42,134.94c-.2-1.28-1.23-2.06-1.86-3.1a39.08,39.08,0,0,1-5.7-14.93,26.67,26.67,0,0,1,1-11.14c.61-2,2-2.55,3.54-1.18,2.61,2.33,5.84,2.69,9,3.26a10.23,10.23,0,0,1,6,3,8.87,8.87,0,0,1,2.34,5.77,61.57,61.57,0,0,0,.5,6.53c.36,2,1.09,2.31,2.94,1.45a63.52,63.52,0,0,1,8.38-3.43,28.63,28.63,0,0,1,10.81-1,24.13,24.13,0,0,0,6.52-.06,2.43,2.43,0,0,1,2.72.85,2.29,2.29,0,0,1-.29,2.8c-1.76,2.51-2.14,5.64-3.64,8.26-2.48,4.33-5,8.64-9.51,11.29-1.42.84-3.14.86-4.51,1.77a15.26,15.26,0,0,1-8.56-1.78c-2.09-1.13-4.7-1.1-6.74-2.38a13.68,13.68,0,0,0-6.77-1.79C349,139,347.16,136.87,345.42,134.94Z" transform="translate(-1.99 -15.43)"/><path class="cls-9" d="M367,170.31c1.43,5.52-2.28,7.95-6.25,10-4.49,2.3-10.69,1.57-14.12-2.93-3.1-4.07-2.08-8.17,1-12.34a12.27,12.27,0,0,1,9.73-5.16c5.34-.14,9.75,2,9.6,8.61C367,169.08,367,169.7,367,170.31Zm-8.05-1c-3.67,0-5.32,1.34-5.33,4.3a5.5,5.5,0,0,0,5.27,5.27c2.67,0,5.18-2.17,5.15-4.35A5,5,0,0,0,358.94,169.28Zm-6.3-3.33a1.89,1.89,0,0,0-2.05-1.69c-1.23,0-2,.64-2,1.91s.91,1.81,2.14,1.82S352.64,167.49,352.64,166Z" transform="translate(-1.99 -15.43)"/><path class="cls-10" d="M306.3,181.57a26.08,26.08,0,0,1,13,5.63,2,2,0,0,1,.81,2.37,2.14,2.14,0,0,1-2.29,1.34,16.81,16.81,0,0,0-2.33.21c-.54,0-.93.21-1,.87-.23,1.69-1.4,2.1-2.82,1.75a2,2,0,0,0-2.64,1c-.6,1-1.43,1.34-2.63.48a11,11,0,0,1-3.24-3.54c-.16-.28-.38-.67-.29-.92a3.07,3.07,0,0,0-.53-3.25s-.08-.12-.06-.15c1-1.69.93-3.75,2-5.4C304.6,181.4,305.33,181.6,306.3,181.57Z" transform="translate(-1.99 -15.43)"/><path class="cls-10" d="M370,179.85c1.4.12,2.2.74,2.11,2.14a2.36,2.36,0,0,0,.83,2.24c.25.19.56.65.48.83-.66,1.49-.43,3.09-.69,4.6s-1.7,2.75-3,3.7-2.4.69-3.18-.85c-.6-1.17-1.54-.62-2.35-.48-1.53.26-2.68-.32-3-1.85-.16-.83-.53-1-1.23-1s-1.58-.05-2.36,0a2,2,0,0,1-1.25-3.63c3.47-2.59,7.12-4.81,11.56-5.34C368.63,180.14,369.34,180,370,179.85Z" transform="translate(-1.99 -15.43)"/><path class="cls-10" d="M324.7,161.36a8.74,8.74,0,0,1,8.05,4.15c.76,1.13.38,2.28.69,3.39a26.78,26.78,0,0,1,.43,6c.1,2.47-1.84,4.13-3.73,5.45-4.29,3-8.77,4.3-13.8,1.54a9.18,9.18,0,0,1-4.49-11.51A13.51,13.51,0,0,1,324.7,161.36Zm-9.15,5.35a1.49,1.49,0,0,0-.26,1.54l-.26.38c-.66-.64-1.14-.55-1.66.24a10.44,10.44,0,0,0-.81,2.18,8.06,8.06,0,0,0,2.48,9c2.93,2.48,6.28,2.3,9.69,2.13a1.79,1.79,0,0,0,1.66-1.43c1-.67,2.41-.7,3.19-1.81a3.88,3.88,0,0,0,3.22-3.84c0-2.07,0-4.14,0-6.21a6.2,6.2,0,0,0-1.28-3.69c-2.08-2.88-7.24-4.12-10.63-2.62-1,.42-1.89,1-2.88,1.32s-.82.89-.49,1.57C316.7,165.64,315.77,165.62,315.55,166.71Z" transform="translate(-1.99 -15.43)"/><path class="cls-7" d="M358.94,169.28A5,5,0,0,1,364,174.5c0,2.18-2.48,4.31-5.15,4.35a5.5,5.5,0,0,1-5.27-5.27C353.62,170.62,355.27,169.3,358.94,169.28Zm-.18.69c-3,0-4.2,1.08-4.19,3.66a4.14,4.14,0,0,0,4.18,4.22c2.66,0,4.43-1.42,4.4-3.5A4.36,4.36,0,0,0,358.76,170Z" transform="translate(-1.99 -15.43)"/><path class="cls-2" d="M352.64,166c0,1.54-.71,2.05-1.91,2s-2.09-.56-2.14-1.82.77-1.91,2-1.91A1.89,1.89,0,0,1,352.64,166Z" transform="translate(-1.99 -15.43)"/><path class="cls-9" d="M326.4,180.74a1.81,1.81,0,0,1-1.67,1.44c-3.41.17-6.76.35-9.69-2.13a8.06,8.06,0,0,1-2.48-9,10.44,10.44,0,0,1,.81-2.18c.52-.79,1-.88,1.66-.24.47.37.66,1.2,1.53,1a4.53,4.53,0,0,0,1.76,0c.85.51.75-.23.87-.67l.24-.34c.61-.52.67-1,0-1.51l-.65-.26-.36-.36c-.07-.52-.61-.64-.87-1-.33-.68-.45-1.22.49-1.57s1.91-.9,2.88-1.32c3.39-1.5,8.55-.26,10.63,2.62a6.2,6.2,0,0,1,1.28,3.69c0,2.07,0,4.14,0,6.21a3.88,3.88,0,0,1-3.22,3.84c2.1-2.39.59-6.12-1.54-7.32l-.3-.25c.13-.68-.39-.75-.81-.78-1.68-.11-3.37-.26-4.9.68a3.75,3.75,0,0,0-1.86,2.06C319,177.53,322,181.09,326.4,180.74Z" transform="translate(-1.99 -15.43)"/><path class="cls-6" d="M328,171.62c2.13,1.2,3.64,4.93,1.54,7.32-.78,1.11-2.17,1.14-3.19,1.8-4.39.35-7.39-3.21-6.22-7.41a3.75,3.75,0,0,1,1.86-2.06c1.53-.94,3.22-.79,4.9-.68.42,0,.94.1.81.78-1.28,0-2.57-.09-3.85,0a3.62,3.62,0,0,0-3.36,3.54,4.72,4.72,0,0,0,2.76,4.6,5.52,5.52,0,0,0,5.4-.64,3.59,3.59,0,0,0,1.18-3.92C329.51,173.65,328.53,172.79,328,171.62Z" transform="translate(-1.99 -15.43)"/><path class="cls-2" d="M318.32,169.61a4.53,4.53,0,0,1-1.76,0,1.87,1.87,0,0,0-1.27-1.33,1.49,1.49,0,0,1,.26-1.54,7.11,7.11,0,0,1,2.83-.24l.36.36-.21,2.23Z" transform="translate(-1.99 -15.43)"/><path class="cls-7" d="M318.38,166.47a7.11,7.11,0,0,0-2.83.24c.22-1.09,1.15-1.07,2-1.24C317.77,165.83,318.31,166,318.38,166.47Z" transform="translate(-1.99 -15.43)"/><path class="cls-7" d="M315.29,168.25a1.87,1.87,0,0,1,1.27,1.33c-.87.25-1.06-.58-1.53-1C315.11,168.5,315.2,168.37,315.29,168.25Z" transform="translate(-1.99 -15.43)"/><path class="cls-2" d="M358.76,170a4.36,4.36,0,0,1,4.39,4.38c0,2.08-1.74,3.49-4.4,3.5a4.14,4.14,0,0,1-4.18-4.22C354.56,171.05,355.79,170,358.76,170Z" transform="translate(-1.99 -15.43)"/><path class="cls-7" d="M318.53,169.06l.21-2.23.65.26c0,.5,0,1,0,1.51l-.24.34Z" transform="translate(-1.99 -15.43)"/><path class="cls-10" d="M319.43,168.6c0-.51,0-1,0-1.51C320.1,167.58,320,168.08,319.43,168.6Z" transform="translate(-1.99 -15.43)"/><path class="cls-10" d="M318.53,169.06l.66-.12c-.12.44,0,1.18-.87.67Z" transform="translate(-1.99 -15.43)"/><path class="cls-2" d="M328,171.62c.49,1.17,1.47,2,1.83,3.32a3.59,3.59,0,0,1-1.18,3.92,5.52,5.52,0,0,1-5.4.64,4.72,4.72,0,0,1-2.76-4.6,3.62,3.62,0,0,1,3.36-3.54c1.28-.08,2.57,0,3.85,0Z" transform="translate(-1.99 -15.43)"/></svg>